<svg width="1520" height="179" viewBox="0 0 1520 179" fill="none" xmlns="http://www.w3.org/2000/svg">
<rect width="387" height="179" fill="white"/>
<rect x="0.5" y="0.5" width="386" height="178" stroke="black" stroke-opacity="0.08"/>
<rect x="1003" width="517" height="179" fill="#5B433F"/>
<rect x="387" width="259" height="179" fill="#F8F8F8"/>
<rect x="646" width="124" height="179" fill="#0F0F0F"/>
<rect x="770" width="233" height="179" fill="#7B5F54"/>
<path d="M433 154.908L433 156.222L429.274 155.646L429.274 158.094L433 158.67L433 159.984L429.274 159.408L429.274 161.388L428.086 161.208L428.086 159.228L425.692 158.868L425.692 160.848L424.504 160.668L424.504 158.688L420.994 158.148L420.994 156.834L424.504 157.374L424.504 154.926L420.994 154.386L420.994 153.072L424.504 153.612L424.504 151.632L425.692 151.812L425.692 153.792L428.086 154.152L428.086 152.172L429.274 152.352L429.274 154.332L433 154.908ZM428.086 155.466L425.692 155.106L425.692 157.554L428.086 157.914L428.086 155.466ZM420.994 144.187L422.254 144.187L422.254 148.327L425.8 148.327L425.8 144.331L427.06 144.331L427.06 148.327L433 148.327L433 149.659L420.994 149.659L420.994 144.187ZM426.754 136.436C427.294 135.224 428.272 134.618 429.688 134.618C430.684 134.618 431.524 134.942 432.208 135.59C432.88 136.226 433.216 137.126 433.216 138.29C433.216 139.454 432.88 140.36 432.208 141.008C431.524 141.644 430.684 141.962 429.688 141.962C428.272 141.962 427.294 141.356 426.754 140.144C426.19 141.116 425.314 141.602 424.126 141.602C423.214 141.602 422.434 141.308 421.786 140.72C421.126 140.132 420.796 139.322 420.796 138.29C420.796 137.258 421.126 136.448 421.786 135.86C422.434 135.272 423.214 134.978 424.126 134.978C425.314 134.978 426.19 135.464 426.754 136.436ZM425.62 139.766C426.016 139.37 426.214 138.878 426.214 138.29C426.214 137.702 426.016 137.216 425.62 136.832C425.224 136.436 424.732 136.238 424.144 136.238C423.508 136.238 422.998 136.442 422.614 136.85C422.218 137.246 422.02 137.726 422.02 138.29C422.02 138.854 422.218 139.34 422.614 139.748C422.998 140.144 423.508 140.342 424.144 140.342C424.732 140.342 425.224 140.15 425.62 139.766ZM431.344 139.982C431.776 139.55 431.992 138.986 431.992 138.29C431.992 137.594 431.776 137.03 431.344 136.598C430.9 136.166 430.336 135.95 429.652 135.95C428.98 135.95 428.434 136.172 428.014 136.616C427.582 137.048 427.366 137.606 427.366 138.29C427.366 138.974 427.582 139.538 428.014 139.982C428.434 140.414 428.98 140.63 429.652 140.63C430.336 140.63 430.9 140.414 431.344 139.982ZM420.994 126.152L422.254 126.152L422.254 130.292L425.8 130.292L425.8 126.296L427.06 126.296L427.06 130.292L433 130.292L433 131.624L420.994 131.624L420.994 126.152ZM426.754 118.401C427.294 117.189 428.272 116.583 429.688 116.583C430.684 116.583 431.524 116.907 432.208 117.555C432.88 118.191 433.216 119.091 433.216 120.255C433.216 121.419 432.88 122.325 432.208 122.973C431.524 123.609 430.684 123.927 429.688 123.927C428.272 123.927 427.294 123.321 426.754 122.109C426.19 123.081 425.314 123.567 424.126 123.567C423.214 123.567 422.434 123.273 421.786 122.685C421.126 122.097 420.796 121.287 420.796 120.255C420.796 119.223 421.126 118.413 421.786 117.825C422.434 117.237 423.214 116.943 424.126 116.943C425.314 116.943 426.19 117.429 426.754 118.401ZM425.62 121.731C426.016 121.335 426.214 120.843 426.214 120.255C426.214 119.667 426.016 119.181 425.62 118.797C425.224 118.401 424.732 118.203 424.144 118.203C423.508 118.203 422.998 118.407 422.614 118.815C422.218 119.211 422.02 119.691 422.02 120.255C422.02 120.819 422.218 121.305 422.614 121.713C422.998 122.109 423.508 122.307 424.144 122.307C424.732 122.307 425.224 122.115 425.62 121.731ZM431.344 121.947C431.776 121.515 431.992 120.951 431.992 120.255C431.992 119.559 431.776 118.995 431.344 118.563C430.9 118.131 430.336 117.915 429.652 117.915C428.98 117.915 428.434 118.137 428.014 118.581C427.582 119.013 427.366 119.571 427.366 120.255C427.366 120.939 427.582 121.503 428.014 121.947C428.434 122.379 428.98 122.595 429.652 122.595C430.336 122.595 430.9 122.379 431.344 121.947ZM420.994 108.117L422.254 108.117L422.254 112.257L425.8 112.257L425.8 108.261L427.06 108.261L427.06 112.257L433 112.257L433 113.589L420.994 113.589L420.994 108.117ZM426.754 100.366C427.294 99.154 428.272 98.548 429.688 98.548C430.684 98.548 431.524 98.872 432.208 99.52C432.88 100.156 433.216 101.056 433.216 102.22C433.216 103.384 432.88 104.29 432.208 104.938C431.524 105.574 430.684 105.892 429.688 105.892C428.272 105.892 427.294 105.286 426.754 104.074C426.19 105.046 425.314 105.532 424.126 105.532C423.214 105.532 422.434 105.238 421.786 104.65C421.126 104.062 420.796 103.252 420.796 102.22C420.796 101.188 421.126 100.378 421.786 99.79C422.434 99.202 423.214 98.908 424.126 98.908C425.314 98.908 426.19 99.394 426.754 100.366ZM425.62 103.696C426.016 103.3 426.214 102.808 426.214 102.22C426.214 101.632 426.016 101.146 425.62 100.762C425.224 100.366 424.732 100.168 424.144 100.168C423.508 100.168 422.998 100.372 422.614 100.78C422.218 101.176 422.02 101.656 422.02 102.22C422.02 102.784 422.218 103.27 422.614 103.678C422.998 104.074 423.508 104.272 424.144 104.272C424.732 104.272 425.224 104.08 425.62 103.696ZM431.344 103.912C431.776 103.48 431.992 102.916 431.992 102.22C431.992 101.524 431.776 100.96 431.344 100.528C430.9 100.096 430.336 99.88 429.652 99.88C428.98 99.88 428.434 100.102 428.014 100.546C427.582 100.978 427.366 101.536 427.366 102.22C427.366 102.904 427.582 103.468 428.014 103.912C428.434 104.344 428.98 104.56 429.652 104.56C430.336 104.56 430.9 104.344 431.344 103.912Z" fill="#7A7A7A"/>
<path d="M692 153.908L692 155.222L688.274 154.646L688.274 157.094L692 157.67L692 158.984L688.274 158.408L688.274 160.388L687.086 160.208L687.086 158.228L684.692 157.868L684.692 159.848L683.504 159.668L683.504 157.688L679.994 157.148L679.994 155.834L683.504 156.374L683.504 153.926L679.994 153.386L679.994 152.072L683.504 152.612L683.504 150.632L684.692 150.812L684.692 152.792L687.086 153.152L687.086 151.172L688.274 151.352L688.274 153.332L692 153.908ZM687.086 154.466L684.692 154.106L684.692 156.554L687.086 156.914L687.086 154.466ZM690.416 142.017C691.616 142.845 692.216 143.871 692.216 145.095C692.216 146.319 691.616 147.345 690.416 148.173C689.252 148.977 687.782 149.379 686.006 149.379C684.23 149.379 682.76 148.977 681.596 148.173C680.396 147.345 679.796 146.319 679.796 145.095C679.796 143.871 680.396 142.845 681.596 142.017C682.76 141.213 684.23 140.811 686.006 140.811C687.782 140.811 689.252 141.213 690.416 142.017ZM682.352 143.025C681.464 143.577 681.02 144.267 681.02 145.095C681.02 145.923 681.464 146.613 682.352 147.165C683.288 147.753 684.506 148.047 686.006 148.047C687.506 148.047 688.724 147.753 689.66 147.165C690.548 146.613 690.992 145.923 690.992 145.095C690.992 144.267 690.548 143.577 689.66 143.025C688.724 142.437 687.506 142.143 686.006 142.143C684.506 142.143 683.288 142.437 682.352 143.025ZM679.994 132.957L681.254 132.957L681.254 137.097L684.8 137.097L684.8 133.101L686.06 133.101L686.06 137.097L692 137.097L692 138.429L679.994 138.429L679.994 132.957ZM690.416 123.982C691.616 124.81 692.216 125.836 692.216 127.06C692.216 128.284 691.616 129.31 690.416 130.138C689.252 130.942 687.782 131.344 686.006 131.344C684.23 131.344 682.76 130.942 681.596 130.138C680.396 129.31 679.796 128.284 679.796 127.06C679.796 125.836 680.396 124.81 681.596 123.982C682.76 123.178 684.23 122.776 686.006 122.776C687.782 122.776 689.252 123.178 690.416 123.982ZM682.352 124.99C681.464 125.542 681.02 126.232 681.02 127.06C681.02 127.888 681.464 128.578 682.352 129.13C683.288 129.718 684.506 130.012 686.006 130.012C687.506 130.012 688.724 129.718 689.66 129.13C690.548 128.578 690.992 127.888 690.992 127.06C690.992 126.232 690.548 125.542 689.66 124.99C688.724 124.402 687.506 124.108 686.006 124.108C684.506 124.108 683.288 124.402 682.352 124.99ZM679.994 114.921L681.254 114.921L681.254 119.061L684.8 119.061L684.8 115.065L686.06 115.065L686.06 119.061L692 119.061L692 120.393L679.994 120.393L679.994 114.921ZM690.416 105.947C691.616 106.775 692.216 107.801 692.216 109.025C692.216 110.249 691.616 111.275 690.416 112.103C689.252 112.907 687.782 113.309 686.006 113.309C684.23 113.309 682.76 112.907 681.596 112.103C680.396 111.275 679.796 110.249 679.796 109.025C679.796 107.801 680.396 106.775 681.596 105.947C682.76 105.143 684.23 104.741 686.006 104.741C687.782 104.741 689.252 105.143 690.416 105.947ZM682.352 106.955C681.464 107.507 681.02 108.197 681.02 109.025C681.02 109.853 681.464 110.543 682.352 111.095C683.288 111.683 684.506 111.977 686.006 111.977C687.506 111.977 688.724 111.683 689.66 111.095C690.548 110.543 690.992 109.853 690.992 109.025C690.992 108.197 690.548 107.507 689.66 106.955C688.724 106.367 687.506 106.073 686.006 106.073C684.506 106.073 683.288 106.367 682.352 106.955ZM679.994 96.8862L681.254 96.8862L681.254 101.026L684.8 101.026L684.8 97.0302L686.06 97.0302L686.06 101.026L692 101.026L692 102.358L679.994 102.358L679.994 96.8862Z" fill="white"/>
<path d="M816 155.908L816 157.222L812.274 156.646L812.274 159.094L816 159.67L816 160.984L812.274 160.408L812.274 162.388L811.086 162.208L811.086 160.228L808.692 159.868L808.692 161.848L807.504 161.668L807.504 159.688L803.994 159.148L803.994 157.834L807.504 158.374L807.504 155.926L803.994 155.386L803.994 154.072L807.504 154.612L807.504 152.632L808.692 152.812L808.692 154.792L811.086 155.152L811.086 153.172L812.274 153.352L812.274 155.332L816 155.908ZM811.086 156.466L808.692 156.106L808.692 158.554L811.086 158.914L811.086 156.466ZM815.586 151.271L805.218 144.449L805.218 151.019L803.994 151.019L803.994 142.199L816.288 150.227L815.586 151.271ZM803.994 140.429L803.994 138.269C803.994 137.069 804.246 136.151 804.75 135.515C805.302 134.795 806.13 134.435 807.234 134.435C808.266 134.435 809.052 134.831 809.592 135.623C809.784 134.855 810.174 134.285 810.762 133.913C811.338 133.529 811.956 133.337 812.616 133.337C813.156 133.337 813.654 133.457 814.11 133.697C814.566 133.925 814.932 134.213 815.208 134.561C815.736 135.233 816 136.193 816 137.441L816 140.429L803.994 140.429ZM805.254 139.097L809.268 139.097L809.268 138.089C809.268 137.909 809.262 137.735 809.25 137.567C809.226 137.399 809.178 137.201 809.106 136.973C809.022 136.733 808.914 136.529 808.782 136.361C808.65 136.181 808.452 136.031 808.188 135.911C807.924 135.791 807.618 135.731 807.27 135.731C806.898 135.731 806.58 135.803 806.316 135.947C806.04 136.091 805.836 136.253 805.704 136.433C805.572 136.613 805.47 136.829 805.398 137.081C805.326 137.333 805.284 137.525 805.272 137.657C805.26 137.789 805.254 137.921 805.254 138.053L805.254 139.097ZM810.456 139.097L814.74 139.097L814.74 137.567C814.74 136.595 814.572 135.893 814.236 135.461C813.852 134.933 813.3 134.669 812.58 134.669C811.776 134.669 811.188 135.011 810.816 135.695C810.576 136.127 810.456 136.805 810.456 137.729L810.456 139.097ZM803.994 123.81L805.218 123.81L805.218 127.662L807.81 128.436C807.762 128.232 807.738 127.98 807.738 127.68C807.738 126.492 808.134 125.538 808.926 124.818C809.718 124.086 810.708 123.72 811.896 123.72C813.192 123.72 814.236 124.146 815.028 124.998C815.82 125.838 816.216 126.87 816.216 128.094C816.216 129.126 815.904 130.02 815.28 130.776C814.908 131.208 814.5 131.556 814.056 131.82L813.3 130.758C813.66 130.578 813.984 130.308 814.272 129.948C814.752 129.36 814.992 128.712 814.992 128.004C814.992 127.164 814.692 126.462 814.092 125.898C813.492 125.334 812.766 125.052 811.914 125.052C811.05 125.052 810.342 125.334 809.79 125.898C809.238 126.45 808.962 127.152 808.962 128.004C808.962 128.76 809.238 129.534 809.79 130.326L803.994 128.58L803.994 123.81ZM803.994 115.181L805.254 115.181L805.254 119.321L808.8 119.321L808.8 115.325L810.06 115.325L810.06 119.321L816 119.321L816 120.653L803.994 120.653L803.994 115.181ZM803.994 105.774L805.218 105.774L805.218 109.626L807.81 110.4C807.762 110.196 807.738 109.944 807.738 109.644C807.738 108.456 808.134 107.502 808.926 106.782C809.718 106.05 810.708 105.684 811.896 105.684C813.192 105.684 814.236 106.11 815.028 106.962C815.82 107.802 816.216 108.834 816.216 110.058C816.216 111.09 815.904 111.984 815.28 112.74C814.908 113.172 814.5 113.52 814.056 113.784L813.3 112.722C813.66 112.542 813.984 112.272 814.272 111.912C814.752 111.324 814.992 110.676 814.992 109.968C814.992 109.128 814.692 108.426 814.092 107.862C813.492 107.298 812.766 107.016 811.914 107.016C811.05 107.016 810.342 107.298 809.79 107.862C809.238 108.414 808.962 109.116 808.962 109.968C808.962 110.724 809.238 111.498 809.79 112.29L803.994 110.544L803.994 105.774ZM803.328 96.775L812.508 96.775L812.508 95.299L813.732 95.299L813.732 96.775L816 96.775L816 98.107L813.732 98.107L813.732 104.263L803.328 96.775ZM812.508 101.905L812.508 98.107L807.198 98.107L812.508 101.905Z" fill="white"/>
<path d="M1049 153.908L1049 155.222L1045.27 154.646L1045.27 157.094L1049 157.67L1049 158.984L1045.27 158.408L1045.27 160.388L1044.09 160.208L1044.09 158.228L1041.69 157.868L1041.69 159.848L1040.5 159.668L1040.5 157.688L1036.99 157.148L1036.99 155.834L1040.5 156.374L1040.5 153.926L1036.99 153.386L1036.99 152.072L1040.5 152.612L1040.5 150.632L1041.69 150.812L1041.69 152.792L1044.09 153.152L1044.09 151.172L1045.27 151.352L1045.27 153.332L1049 153.908ZM1044.09 154.466L1041.69 154.106L1041.69 156.554L1044.09 156.914L1044.09 154.466ZM1036.99 141.585L1038.22 141.585L1038.22 145.437L1040.81 146.211C1040.76 146.007 1040.74 145.755 1040.74 145.455C1040.74 144.267 1041.13 143.313 1041.93 142.593C1042.72 141.861 1043.71 141.495 1044.9 141.495C1046.19 141.495 1047.24 141.921 1048.03 142.773C1048.82 143.613 1049.22 144.645 1049.22 145.869C1049.22 146.901 1048.9 147.795 1048.28 148.551C1047.91 148.983 1047.5 149.331 1047.06 149.595L1046.3 148.533C1046.66 148.353 1046.98 148.083 1047.27 147.723C1047.75 147.135 1047.99 146.487 1047.99 145.779C1047.99 144.939 1047.69 144.237 1047.09 143.673C1046.49 143.109 1045.77 142.827 1044.91 142.827C1044.05 142.827 1043.34 143.109 1042.79 143.673C1042.24 144.225 1041.96 144.927 1041.96 145.779C1041.96 146.535 1042.24 147.309 1042.79 148.101L1036.99 146.355L1036.99 141.585ZM1036.99 138.429L1036.99 136.269C1036.99 135.069 1037.25 134.151 1037.75 133.515C1038.3 132.795 1039.13 132.435 1040.23 132.435C1041.27 132.435 1042.05 132.831 1042.59 133.623C1042.78 132.855 1043.17 132.285 1043.76 131.913C1044.34 131.529 1044.96 131.337 1045.62 131.337C1046.16 131.337 1046.65 131.457 1047.11 131.697C1047.57 131.925 1047.93 132.213 1048.21 132.561C1048.74 133.233 1049 134.193 1049 135.441L1049 138.429L1036.99 138.429ZM1038.25 137.097L1042.27 137.097L1042.27 136.089C1042.27 135.909 1042.26 135.735 1042.25 135.567C1042.23 135.399 1042.18 135.201 1042.11 134.973C1042.02 134.733 1041.91 134.529 1041.78 134.361C1041.65 134.181 1041.45 134.031 1041.19 133.911C1040.92 133.791 1040.62 133.731 1040.27 133.731C1039.9 133.731 1039.58 133.803 1039.32 133.947C1039.04 134.091 1038.84 134.253 1038.7 134.433C1038.57 134.613 1038.47 134.829 1038.4 135.081C1038.33 135.333 1038.28 135.525 1038.27 135.657C1038.26 135.789 1038.25 135.921 1038.25 136.053L1038.25 137.097ZM1043.46 137.097L1047.74 137.097L1047.74 135.567C1047.74 134.595 1047.57 133.893 1047.24 133.461C1046.85 132.933 1046.3 132.669 1045.58 132.669C1044.78 132.669 1044.19 133.011 1043.82 133.695C1043.58 134.127 1043.46 134.805 1043.46 135.729L1043.46 137.097ZM1036.33 122.584L1045.51 122.584L1045.51 121.108L1046.73 121.108L1046.73 122.584L1049 122.584L1049 123.916L1046.73 123.916L1046.73 130.072L1036.33 122.584ZM1045.51 127.714L1045.51 123.916L1040.2 123.916L1045.51 127.714ZM1039.96 117.321L1039.96 118.653C1039.33 118.617 1038.74 118.431 1038.2 118.095C1037.26 117.495 1036.8 116.565 1036.8 115.305C1036.8 114.237 1037.11 113.409 1037.75 112.821C1038.39 112.221 1039.15 111.921 1040.04 111.921C1041.3 111.921 1042.18 112.437 1042.7 113.469C1042.76 113.313 1042.84 113.163 1042.95 113.019C1043.05 112.863 1043.2 112.677 1043.42 112.461C1043.64 112.245 1043.94 112.071 1044.32 111.939C1044.69 111.807 1045.12 111.741 1045.6 111.741C1046.69 111.741 1047.57 112.095 1048.23 112.803C1048.89 113.499 1049.22 114.375 1049.22 115.431C1049.22 116.139 1049.05 116.799 1048.73 117.411C1048.39 118.023 1047.87 118.479 1047.15 118.779C1046.76 118.935 1046.34 119.025 1045.89 119.049L1045.89 117.717C1046.38 117.657 1046.78 117.513 1047.09 117.285C1047.69 116.877 1047.99 116.259 1047.99 115.431C1047.99 114.771 1047.76 114.213 1047.29 113.757C1046.81 113.301 1046.23 113.073 1045.56 113.073C1044.58 113.073 1043.91 113.469 1043.55 114.261C1043.35 114.657 1043.27 115.113 1043.29 115.629L1042.11 115.629C1042.14 115.113 1042.06 114.657 1041.85 114.261C1041.51 113.589 1040.91 113.253 1040.07 113.253C1039.48 113.253 1039 113.421 1038.61 113.757C1038.22 114.093 1038.02 114.609 1038.02 115.305C1038.02 115.977 1038.25 116.493 1038.7 116.853C1039.06 117.129 1039.48 117.285 1039.96 117.321ZM1039.96 107.987L1039.96 109.319C1039.33 109.283 1038.74 109.097 1038.2 108.761C1037.26 108.161 1036.8 107.231 1036.8 105.971C1036.8 104.903 1037.11 104.075 1037.75 103.487C1038.39 102.887 1039.15 102.587 1040.04 102.587C1041.3 102.587 1042.18 103.103 1042.7 104.135C1042.76 103.979 1042.84 103.829 1042.95 103.685C1043.05 103.529 1043.2 103.343 1043.42 103.127C1043.64 102.911 1043.94 102.737 1044.32 102.605C1044.69 102.473 1045.12 102.407 1045.6 102.407C1046.69 102.407 1047.57 102.761 1048.23 103.469C1048.89 104.165 1049.22 105.041 1049.22 106.097C1049.22 106.805 1049.05 107.465 1048.73 108.077C1048.39 108.689 1047.87 109.145 1047.15 109.445C1046.76 109.601 1046.34 109.691 1045.89 109.715L1045.89 108.383C1046.38 108.323 1046.78 108.179 1047.09 107.951C1047.69 107.543 1047.99 106.925 1047.99 106.097C1047.99 105.437 1047.76 104.879 1047.29 104.423C1046.81 103.967 1046.23 103.739 1045.56 103.739C1044.58 103.739 1043.91 104.135 1043.55 104.927C1043.35 105.323 1043.27 105.779 1043.29 106.295L1042.11 106.295C1042.14 105.779 1042.06 105.323 1041.85 104.927C1041.51 104.255 1040.91 103.919 1040.07 103.919C1039.48 103.919 1039 104.087 1038.61 104.423C1038.22 104.759 1038.02 105.275 1038.02 105.971C1038.02 106.643 1038.25 107.159 1038.7 107.519C1039.06 107.795 1039.48 107.951 1039.96 107.987ZM1036.99 93.6167L1038.25 93.6167L1038.25 97.7567L1041.8 97.7567L1041.8 93.7607L1043.06 93.7607L1043.06 97.7567L1049 97.7567L1049 99.0887L1036.99 99.0887L1036.99 93.6167Z" fill="white"/>
<path d="M48 154.908L48 156.222L44.274 155.646L44.274 158.094L48 158.67L48 159.984L44.274 159.408L44.274 161.388L43.086 161.208L43.086 159.228L40.692 158.868L40.692 160.848L39.504 160.668L39.504 158.688L35.994 158.148L35.994 156.834L39.504 157.374L39.504 154.926L35.994 154.386L35.994 153.072L39.504 153.612L39.504 151.632L40.692 151.812L40.692 153.792L43.086 154.152L43.086 152.172L44.274 152.352L44.274 154.332L48 154.908ZM43.086 155.466L40.692 155.106L40.692 157.554L43.086 157.914L43.086 155.466ZM35.994 144.187L37.254 144.187L37.254 148.327L40.8 148.327L40.8 144.331L42.06 144.331L42.06 148.327L48 148.327L48 149.659L35.994 149.659L35.994 144.187ZM35.994 136.382L37.254 136.382L37.254 140.522L40.8 140.522L40.8 136.526L42.06 136.526L42.06 140.522L48 140.522L48 141.854L35.994 141.854L35.994 136.382ZM35.994 128.578L37.254 128.578L37.254 132.718L40.8 132.718L40.8 128.722L42.06 128.722L42.06 132.718L48 132.718L48 134.05L35.994 134.05L35.994 128.578ZM35.994 120.773L37.254 120.773L37.254 124.913L40.8 124.913L40.8 120.917L42.06 120.917L42.06 124.913L48 124.913L48 126.245L35.994 126.245L35.994 120.773ZM35.994 112.968L37.254 112.968L37.254 117.108L40.8 117.108L40.8 113.112L42.06 113.112L42.06 117.108L48 117.108L48 118.44L35.994 118.44L35.994 112.968ZM35.994 105.164L37.254 105.164L37.254 109.304L40.8 109.304L40.8 105.308L42.06 105.308L42.06 109.304L48 109.304L48 110.636L35.994 110.636L35.994 105.164Z" fill="#7A7A7A"/>
</svg>
