<svg width="1520" height="179" viewBox="0 0 1520 179" fill="none" xmlns="http://www.w3.org/2000/svg">
<rect width="387" height="179" fill="#1D2027"/>
<rect x="0.5" y="0.5" width="386" height="178" stroke="white" stroke-opacity="0.08"/>
<rect x="1003" width="517" height="179" fill="#5B433F"/>
<rect x="387" width="259" height="179" fill="#262930"/>
<rect x="646" width="124" height="179" fill="#1B1D23"/>
<rect x="770" width="233" height="179" fill="#7B5F54"/>
<path d="M433 154.908L433 156.222L429.274 155.646L429.274 158.094L433 158.67L433 159.984L429.274 159.408L429.274 161.388L428.086 161.208L428.086 159.228L425.692 158.868L425.692 160.848L424.504 160.668L424.504 158.688L420.994 158.148L420.994 156.834L424.504 157.374L424.504 154.926L420.994 154.386L420.994 153.072L424.504 153.612L424.504 151.632L425.692 151.812L425.692 153.792L428.086 154.152L428.086 152.172L429.274 152.352L429.274 154.332L433 154.908ZM428.086 155.466L425.692 155.106L425.692 157.554L428.086 157.914L428.086 155.466ZM433 142.549L433 150.307L427.942 145.933C427.066 145.189 426.484 144.721 426.196 144.529C425.56 144.085 424.948 143.863 424.36 143.863C423.676 143.863 423.118 144.085 422.686 144.529C422.242 144.973 422.02 145.549 422.02 146.257C422.02 147.121 422.374 147.787 423.082 148.255C423.466 148.507 423.94 148.639 424.504 148.651L424.504 149.983C423.484 149.935 422.656 149.635 422.02 149.083C421.204 148.363 420.796 147.415 420.796 146.239C420.796 145.171 421.138 144.289 421.822 143.593C422.494 142.885 423.346 142.531 424.378 142.531C425.182 142.531 426.04 142.849 426.952 143.485C427.396 143.809 428.062 144.355 428.95 145.123L431.776 147.625L431.776 142.549L433 142.549ZM420.706 135.597L421.462 134.589L425.296 137.343C425.188 137.007 425.134 136.653 425.134 136.281C425.134 135.141 425.512 134.211 426.268 133.491C427.024 132.759 427.966 132.393 429.094 132.393C430.294 132.393 431.284 132.783 432.064 133.563C432.832 134.331 433.216 135.315 433.216 136.515C433.216 137.403 433.006 138.177 432.586 138.837C432.154 139.485 431.638 139.953 431.038 140.241C430.426 140.529 429.79 140.673 429.13 140.673C428.218 140.673 427.3 140.343 426.376 139.683L420.706 135.597ZM431.992 136.533C431.992 135.717 431.722 135.045 431.182 134.517C430.63 133.989 429.946 133.725 429.13 133.725C428.326 133.725 427.666 133.995 427.15 134.535C426.622 135.063 426.358 135.735 426.358 136.551C426.358 137.367 426.622 138.039 427.15 138.567C427.678 139.083 428.338 139.341 429.13 139.341C429.946 139.341 430.63 139.083 431.182 138.567C431.722 138.039 431.992 137.361 431.992 136.533ZM433 123.424L433 131.182L427.942 126.808C427.066 126.064 426.484 125.596 426.196 125.404C425.56 124.96 424.948 124.738 424.36 124.738C423.676 124.738 423.118 124.96 422.686 125.404C422.242 125.848 422.02 126.424 422.02 127.132C422.02 127.996 422.374 128.662 423.082 129.13C423.466 129.382 423.94 129.514 424.504 129.526L424.504 130.858C423.484 130.81 422.656 130.51 422.02 129.958C421.204 129.238 420.796 128.29 420.796 127.114C420.796 126.046 421.138 125.164 421.822 124.468C422.494 123.76 423.346 123.406 424.378 123.406C425.182 123.406 426.04 123.724 426.952 124.36C427.396 124.684 428.062 125.23 428.95 125.998L431.776 128.5L431.776 123.424L433 123.424ZM433.288 118.344L432.55 119.352L428.716 116.598C428.824 116.946 428.878 117.3 428.878 117.66C428.878 118.8 428.5 119.736 427.744 120.468C426.988 121.188 426.046 121.548 424.918 121.548C423.718 121.548 422.734 121.164 421.966 120.396C421.186 119.616 420.796 118.626 420.796 117.426C420.796 116.538 421.012 115.77 421.444 115.122C421.864 114.462 422.38 113.988 422.992 113.7C423.592 113.412 424.222 113.268 424.882 113.268C425.806 113.268 426.724 113.598 427.636 114.258L433.288 118.344ZM422.02 117.408C422.02 118.224 422.296 118.896 422.848 119.424C423.388 119.952 424.066 120.216 424.882 120.216C425.686 120.216 426.352 119.952 426.88 119.424C427.396 118.884 427.654 118.206 427.654 117.39C427.654 116.574 427.39 115.908 426.862 115.392C426.334 114.864 425.674 114.6 424.882 114.6C424.066 114.6 423.388 114.864 422.848 115.392C422.296 115.908 422.02 116.58 422.02 117.408ZM423.964 110.095L423.964 111.427C423.328 111.391 422.74 111.205 422.2 110.869C421.264 110.269 420.796 109.339 420.796 108.079C420.796 107.011 421.114 106.183 421.75 105.595C422.386 104.995 423.148 104.695 424.036 104.695C425.296 104.695 426.184 105.211 426.7 106.243C426.76 106.087 426.844 105.937 426.952 105.793C427.048 105.637 427.204 105.451 427.42 105.235C427.636 105.019 427.936 104.845 428.32 104.713C428.692 104.581 429.118 104.515 429.598 104.515C430.69 104.515 431.566 104.869 432.226 105.577C432.886 106.273 433.216 107.149 433.216 108.205C433.216 108.913 433.054 109.573 432.73 110.185C432.394 110.797 431.866 111.253 431.146 111.553C430.762 111.709 430.342 111.799 429.886 111.823L429.886 110.491C430.378 110.431 430.78 110.287 431.092 110.059C431.692 109.651 431.992 109.033 431.992 108.205C431.992 107.545 431.758 106.987 431.29 106.531C430.81 106.075 430.234 105.847 429.562 105.847C428.578 105.847 427.906 106.243 427.546 107.035C427.354 107.431 427.27 107.887 427.294 108.403L426.106 108.403C426.142 107.887 426.058 107.431 425.854 107.035C425.506 106.363 424.912 106.027 424.072 106.027C423.484 106.027 422.998 106.195 422.614 106.531C422.218 106.867 422.02 107.383 422.02 108.079C422.02 108.751 422.248 109.267 422.704 109.627C423.064 109.903 423.484 110.059 423.964 110.095ZM431.416 94.5541C432.616 95.3821 433.216 96.4081 433.216 97.6321C433.216 98.8561 432.616 99.8821 431.416 100.71C430.252 101.514 428.782 101.916 427.006 101.916C425.23 101.916 423.76 101.514 422.596 100.71C421.396 99.8821 420.796 98.8561 420.796 97.6321C420.796 96.4081 421.396 95.3821 422.596 94.5541C423.76 93.7501 425.23 93.3481 427.006 93.3481C428.782 93.3481 430.252 93.7501 431.416 94.5541ZM423.352 95.5621C422.464 96.1141 422.02 96.8041 422.02 97.6321C422.02 98.4601 422.464 99.1501 423.352 99.7021C424.288 100.29 425.506 100.584 427.006 100.584C428.506 100.584 429.724 100.29 430.66 99.7021C431.548 99.1501 431.992 98.4601 431.992 97.6321C431.992 96.8041 431.548 96.1141 430.66 95.5621C429.724 94.9741 428.506 94.6801 427.006 94.6801C425.506 94.6801 424.288 94.9741 423.352 95.5621Z" fill="white"/>
<path d="M692 153.908L692 155.222L688.274 154.646L688.274 157.094L692 157.67L692 158.984L688.274 158.408L688.274 160.388L687.086 160.208L687.086 158.228L684.692 157.868L684.692 159.848L683.504 159.668L683.504 157.688L679.994 157.148L679.994 155.834L683.504 156.374L683.504 153.926L679.994 153.386L679.994 152.072L683.504 152.612L683.504 150.632L684.692 150.812L684.692 152.792L687.086 153.152L687.086 151.172L688.274 151.352L688.274 153.332L692 153.908ZM687.086 154.466L684.692 154.106L684.692 156.554L687.086 156.914L687.086 154.466ZM692 145.419L681.254 145.419L681.254 147.435L679.994 146.733L679.994 144.087L692 144.087L692 145.419ZM679.994 138.429L679.994 136.269C679.994 135.069 680.246 134.151 680.75 133.515C681.302 132.795 682.13 132.435 683.234 132.435C684.266 132.435 685.052 132.831 685.592 133.623C685.784 132.855 686.174 132.285 686.762 131.913C687.338 131.529 687.956 131.337 688.616 131.337C689.156 131.337 689.654 131.457 690.11 131.697C690.566 131.925 690.932 132.213 691.208 132.561C691.736 133.233 692 134.193 692 135.441L692 138.429L679.994 138.429ZM681.254 137.097L685.268 137.097L685.268 136.089C685.268 135.909 685.262 135.735 685.25 135.567C685.226 135.399 685.178 135.201 685.106 134.973C685.022 134.733 684.914 134.529 684.782 134.361C684.65 134.181 684.452 134.031 684.188 133.911C683.924 133.791 683.618 133.731 683.27 133.731C682.898 133.731 682.58 133.803 682.316 133.947C682.04 134.091 681.836 134.253 681.704 134.433C681.572 134.613 681.47 134.829 681.398 135.081C681.326 135.333 681.284 135.525 681.272 135.657C681.26 135.789 681.254 135.921 681.254 136.053L681.254 137.097ZM686.456 137.097L690.74 137.097L690.74 135.567C690.74 134.595 690.572 133.893 690.236 133.461C689.852 132.933 689.3 132.669 688.58 132.669C687.776 132.669 687.188 133.011 686.816 133.695C686.576 134.127 686.456 134.805 686.456 135.729L686.456 137.097ZM692 125.644L681.254 125.644L681.254 127.66L679.994 126.958L679.994 124.312L692 124.312L692 125.644ZM692 118.653L679.994 118.653L679.994 116.205C679.994 114.357 680.462 112.881 681.398 111.777C682.538 110.409 684.074 109.725 686.006 109.725C687.878 109.725 689.414 110.427 690.614 111.831C691.106 112.407 691.46 113.025 691.676 113.685C691.892 114.345 692 115.191 692 116.223L692 118.653ZM681.254 117.321L690.74 117.321L690.74 116.151C690.74 114.723 690.38 113.577 689.66 112.713C688.748 111.633 687.53 111.093 686.006 111.093C684.566 111.093 683.414 111.555 682.55 112.479C681.686 113.403 681.254 114.627 681.254 116.151L681.254 117.321ZM692 100.17L692 107.928L686.942 103.554C686.066 102.81 685.484 102.342 685.196 102.15C684.56 101.706 683.948 101.484 683.36 101.484C682.676 101.484 682.118 101.706 681.686 102.15C681.242 102.594 681.02 103.17 681.02 103.878C681.02 104.742 681.374 105.408 682.082 105.876C682.466 106.128 682.94 106.26 683.504 106.272L683.504 107.604C682.484 107.556 681.656 107.256 681.02 106.704C680.204 105.984 679.796 105.036 679.796 103.86C679.796 102.792 680.138 101.91 680.822 101.214C681.494 100.506 682.346 100.152 683.378 100.152C684.182 100.152 685.04 100.47 685.952 101.106C686.396 101.43 687.062 101.976 687.95 102.744L690.776 105.246L690.776 100.17L692 100.17ZM682.964 96.4032L682.964 97.7352C682.328 97.6992 681.74 97.5132 681.2 97.1772C680.264 96.5772 679.796 95.6472 679.796 94.3872C679.796 93.3192 680.114 92.4912 680.75 91.9032C681.386 91.3032 682.148 91.0032 683.036 91.0032C684.296 91.0032 685.184 91.5192 685.7 92.5512C685.76 92.3952 685.844 92.2452 685.952 92.1012C686.048 91.9452 686.204 91.7592 686.42 91.5432C686.636 91.3272 686.936 91.1532 687.32 91.0212C687.692 90.8892 688.118 90.8232 688.598 90.8232C689.69 90.8232 690.566 91.1772 691.226 91.8852C691.886 92.5812 692.216 93.4572 692.216 94.5132C692.216 95.2212 692.054 95.8812 691.73 96.4932C691.394 97.1052 690.866 97.5612 690.146 97.8612C689.762 98.0172 689.342 98.1072 688.886 98.1312L688.886 96.7992C689.378 96.7392 689.78 96.5952 690.092 96.3672C690.692 95.9592 690.992 95.3412 690.992 94.5132C690.992 93.8532 690.758 93.2952 690.29 92.8392C689.81 92.3832 689.234 92.1552 688.562 92.1552C687.578 92.1552 686.906 92.5512 686.546 93.3432C686.354 93.7392 686.27 94.1952 686.294 94.7112L685.106 94.7112C685.142 94.1952 685.058 93.7392 684.854 93.3432C684.506 92.6712 683.912 92.3352 683.072 92.3352C682.484 92.3352 681.998 92.5032 681.614 92.8392C681.218 93.1752 681.02 93.6912 681.02 94.3872C681.02 95.0592 681.248 95.5752 681.704 95.9352C682.064 96.2112 682.484 96.3672 682.964 96.4032Z" fill="white"/>
<path d="M816 155.908L816 157.222L812.274 156.646L812.274 159.094L816 159.67L816 160.984L812.274 160.408L812.274 162.388L811.086 162.208L811.086 160.228L808.692 159.868L808.692 161.848L807.504 161.668L807.504 159.688L803.994 159.148L803.994 157.834L807.504 158.374L807.504 155.926L803.994 155.386L803.994 154.072L807.504 154.612L807.504 152.632L808.692 152.812L808.692 154.792L811.086 155.152L811.086 153.172L812.274 153.352L812.274 155.332L816 155.908ZM811.086 156.466L808.692 156.106L808.692 158.554L811.086 158.914L811.086 156.466ZM815.586 151.271L805.218 144.449L805.218 151.019L803.994 151.019L803.994 142.199L816.288 150.227L815.586 151.271ZM803.994 140.429L803.994 138.269C803.994 137.069 804.246 136.151 804.75 135.515C805.302 134.795 806.13 134.435 807.234 134.435C808.266 134.435 809.052 134.831 809.592 135.623C809.784 134.855 810.174 134.285 810.762 133.913C811.338 133.529 811.956 133.337 812.616 133.337C813.156 133.337 813.654 133.457 814.11 133.697C814.566 133.925 814.932 134.213 815.208 134.561C815.736 135.233 816 136.193 816 137.441L816 140.429L803.994 140.429ZM805.254 139.097L809.268 139.097L809.268 138.089C809.268 137.909 809.262 137.735 809.25 137.567C809.226 137.399 809.178 137.201 809.106 136.973C809.022 136.733 808.914 136.529 808.782 136.361C808.65 136.181 808.452 136.031 808.188 135.911C807.924 135.791 807.618 135.731 807.27 135.731C806.898 135.731 806.58 135.803 806.316 135.947C806.04 136.091 805.836 136.253 805.704 136.433C805.572 136.613 805.47 136.829 805.398 137.081C805.326 137.333 805.284 137.525 805.272 137.657C805.26 137.789 805.254 137.921 805.254 138.053L805.254 139.097ZM810.456 139.097L814.74 139.097L814.74 137.567C814.74 136.595 814.572 135.893 814.236 135.461C813.852 134.933 813.3 134.669 812.58 134.669C811.776 134.669 811.188 135.011 810.816 135.695C810.576 136.127 810.456 136.805 810.456 137.729L810.456 139.097ZM803.994 123.81L805.218 123.81L805.218 127.662L807.81 128.436C807.762 128.232 807.738 127.98 807.738 127.68C807.738 126.492 808.134 125.538 808.926 124.818C809.718 124.086 810.708 123.72 811.896 123.72C813.192 123.72 814.236 124.146 815.028 124.998C815.82 125.838 816.216 126.87 816.216 128.094C816.216 129.126 815.904 130.02 815.28 130.776C814.908 131.208 814.5 131.556 814.056 131.82L813.3 130.758C813.66 130.578 813.984 130.308 814.272 129.948C814.752 129.36 814.992 128.712 814.992 128.004C814.992 127.164 814.692 126.462 814.092 125.898C813.492 125.334 812.766 125.052 811.914 125.052C811.05 125.052 810.342 125.334 809.79 125.898C809.238 126.45 808.962 127.152 808.962 128.004C808.962 128.76 809.238 129.534 809.79 130.326L803.994 128.58L803.994 123.81ZM803.994 115.181L805.254 115.181L805.254 119.321L808.8 119.321L808.8 115.325L810.06 115.325L810.06 119.321L816 119.321L816 120.653L803.994 120.653L803.994 115.181ZM803.994 105.774L805.218 105.774L805.218 109.626L807.81 110.4C807.762 110.196 807.738 109.944 807.738 109.644C807.738 108.456 808.134 107.502 808.926 106.782C809.718 106.05 810.708 105.684 811.896 105.684C813.192 105.684 814.236 106.11 815.028 106.962C815.82 107.802 816.216 108.834 816.216 110.058C816.216 111.09 815.904 111.984 815.28 112.74C814.908 113.172 814.5 113.52 814.056 113.784L813.3 112.722C813.66 112.542 813.984 112.272 814.272 111.912C814.752 111.324 814.992 110.676 814.992 109.968C814.992 109.128 814.692 108.426 814.092 107.862C813.492 107.298 812.766 107.016 811.914 107.016C811.05 107.016 810.342 107.298 809.79 107.862C809.238 108.414 808.962 109.116 808.962 109.968C808.962 110.724 809.238 111.498 809.79 112.29L803.994 110.544L803.994 105.774ZM803.328 96.775L812.508 96.775L812.508 95.299L813.732 95.299L813.732 96.775L816 96.775L816 98.107L813.732 98.107L813.732 104.263L803.328 96.775ZM812.508 101.905L812.508 98.107L807.198 98.107L812.508 101.905Z" fill="white"/>
<path d="M1049 153.908L1049 155.222L1045.27 154.646L1045.27 157.094L1049 157.67L1049 158.984L1045.27 158.408L1045.27 160.388L1044.09 160.208L1044.09 158.228L1041.69 157.868L1041.69 159.848L1040.5 159.668L1040.5 157.688L1036.99 157.148L1036.99 155.834L1040.5 156.374L1040.5 153.926L1036.99 153.386L1036.99 152.072L1040.5 152.612L1040.5 150.632L1041.69 150.812L1041.69 152.792L1044.09 153.152L1044.09 151.172L1045.27 151.352L1045.27 153.332L1049 153.908ZM1044.09 154.466L1041.69 154.106L1041.69 156.554L1044.09 156.914L1044.09 154.466ZM1036.99 141.585L1038.22 141.585L1038.22 145.437L1040.81 146.211C1040.76 146.007 1040.74 145.755 1040.74 145.455C1040.74 144.267 1041.13 143.313 1041.93 142.593C1042.72 141.861 1043.71 141.495 1044.9 141.495C1046.19 141.495 1047.24 141.921 1048.03 142.773C1048.82 143.613 1049.22 144.645 1049.22 145.869C1049.22 146.901 1048.9 147.795 1048.28 148.551C1047.91 148.983 1047.5 149.331 1047.06 149.595L1046.3 148.533C1046.66 148.353 1046.98 148.083 1047.27 147.723C1047.75 147.135 1047.99 146.487 1047.99 145.779C1047.99 144.939 1047.69 144.237 1047.09 143.673C1046.49 143.109 1045.77 142.827 1044.91 142.827C1044.05 142.827 1043.34 143.109 1042.79 143.673C1042.24 144.225 1041.96 144.927 1041.96 145.779C1041.96 146.535 1042.24 147.309 1042.79 148.101L1036.99 146.355L1036.99 141.585ZM1036.99 138.429L1036.99 136.269C1036.99 135.069 1037.25 134.151 1037.75 133.515C1038.3 132.795 1039.13 132.435 1040.23 132.435C1041.27 132.435 1042.05 132.831 1042.59 133.623C1042.78 132.855 1043.17 132.285 1043.76 131.913C1044.34 131.529 1044.96 131.337 1045.62 131.337C1046.16 131.337 1046.65 131.457 1047.11 131.697C1047.57 131.925 1047.93 132.213 1048.21 132.561C1048.74 133.233 1049 134.193 1049 135.441L1049 138.429L1036.99 138.429ZM1038.25 137.097L1042.27 137.097L1042.27 136.089C1042.27 135.909 1042.26 135.735 1042.25 135.567C1042.23 135.399 1042.18 135.201 1042.11 134.973C1042.02 134.733 1041.91 134.529 1041.78 134.361C1041.65 134.181 1041.45 134.031 1041.19 133.911C1040.92 133.791 1040.62 133.731 1040.27 133.731C1039.9 133.731 1039.58 133.803 1039.32 133.947C1039.04 134.091 1038.84 134.253 1038.7 134.433C1038.57 134.613 1038.47 134.829 1038.4 135.081C1038.33 135.333 1038.28 135.525 1038.27 135.657C1038.26 135.789 1038.25 135.921 1038.25 136.053L1038.25 137.097ZM1043.46 137.097L1047.74 137.097L1047.74 135.567C1047.74 134.595 1047.57 133.893 1047.24 133.461C1046.85 132.933 1046.3 132.669 1045.58 132.669C1044.78 132.669 1044.19 133.011 1043.82 133.695C1043.58 134.127 1043.46 134.805 1043.46 135.729L1043.46 137.097ZM1036.33 122.584L1045.51 122.584L1045.51 121.108L1046.73 121.108L1046.73 122.584L1049 122.584L1049 123.916L1046.73 123.916L1046.73 130.072L1036.33 122.584ZM1045.51 127.714L1045.51 123.916L1040.2 123.916L1045.51 127.714ZM1039.96 117.321L1039.96 118.653C1039.33 118.617 1038.74 118.431 1038.2 118.095C1037.26 117.495 1036.8 116.565 1036.8 115.305C1036.8 114.237 1037.11 113.409 1037.75 112.821C1038.39 112.221 1039.15 111.921 1040.04 111.921C1041.3 111.921 1042.18 112.437 1042.7 113.469C1042.76 113.313 1042.84 113.163 1042.95 113.019C1043.05 112.863 1043.2 112.677 1043.42 112.461C1043.64 112.245 1043.94 112.071 1044.32 111.939C1044.69 111.807 1045.12 111.741 1045.6 111.741C1046.69 111.741 1047.57 112.095 1048.23 112.803C1048.89 113.499 1049.22 114.375 1049.22 115.431C1049.22 116.139 1049.05 116.799 1048.73 117.411C1048.39 118.023 1047.87 118.479 1047.15 118.779C1046.76 118.935 1046.34 119.025 1045.89 119.049L1045.89 117.717C1046.38 117.657 1046.78 117.513 1047.09 117.285C1047.69 116.877 1047.99 116.259 1047.99 115.431C1047.99 114.771 1047.76 114.213 1047.29 113.757C1046.81 113.301 1046.23 113.073 1045.56 113.073C1044.58 113.073 1043.91 113.469 1043.55 114.261C1043.35 114.657 1043.27 115.113 1043.29 115.629L1042.11 115.629C1042.14 115.113 1042.06 114.657 1041.85 114.261C1041.51 113.589 1040.91 113.253 1040.07 113.253C1039.48 113.253 1039 113.421 1038.61 113.757C1038.22 114.093 1038.02 114.609 1038.02 115.305C1038.02 115.977 1038.25 116.493 1038.7 116.853C1039.06 117.129 1039.48 117.285 1039.96 117.321ZM1039.96 107.987L1039.96 109.319C1039.33 109.283 1038.74 109.097 1038.2 108.761C1037.26 108.161 1036.8 107.231 1036.8 105.971C1036.8 104.903 1037.11 104.075 1037.75 103.487C1038.39 102.887 1039.15 102.587 1040.04 102.587C1041.3 102.587 1042.18 103.103 1042.7 104.135C1042.76 103.979 1042.84 103.829 1042.95 103.685C1043.05 103.529 1043.2 103.343 1043.42 103.127C1043.64 102.911 1043.94 102.737 1044.32 102.605C1044.69 102.473 1045.12 102.407 1045.6 102.407C1046.69 102.407 1047.57 102.761 1048.23 103.469C1048.89 104.165 1049.22 105.041 1049.22 106.097C1049.22 106.805 1049.05 107.465 1048.73 108.077C1048.39 108.689 1047.87 109.145 1047.15 109.445C1046.76 109.601 1046.34 109.691 1045.89 109.715L1045.89 108.383C1046.38 108.323 1046.78 108.179 1047.09 107.951C1047.69 107.543 1047.99 106.925 1047.99 106.097C1047.99 105.437 1047.76 104.879 1047.29 104.423C1046.81 103.967 1046.23 103.739 1045.56 103.739C1044.58 103.739 1043.91 104.135 1043.55 104.927C1043.35 105.323 1043.27 105.779 1043.29 106.295L1042.11 106.295C1042.14 105.779 1042.06 105.323 1041.85 104.927C1041.51 104.255 1040.91 103.919 1040.07 103.919C1039.48 103.919 1039 104.087 1038.61 104.423C1038.22 104.759 1038.02 105.275 1038.02 105.971C1038.02 106.643 1038.25 107.159 1038.7 107.519C1039.06 107.795 1039.48 107.951 1039.96 107.987ZM1036.99 93.6167L1038.25 93.6167L1038.25 97.7567L1041.8 97.7567L1041.8 93.7607L1043.06 93.7607L1043.06 97.7567L1049 97.7567L1049 99.0887L1036.99 99.0887L1036.99 93.6167Z" fill="white"/>
<path d="M48 154.908L48 156.222L44.274 155.646L44.274 158.094L48 158.67L48 159.984L44.274 159.408L44.274 161.388L43.086 161.208L43.086 159.228L40.692 158.868L40.692 160.848L39.504 160.668L39.504 158.688L35.994 158.148L35.994 156.834L39.504 157.374L39.504 154.926L35.994 154.386L35.994 153.072L39.504 153.612L39.504 151.632L40.692 151.812L40.692 153.792L43.086 154.152L43.086 152.172L44.274 152.352L44.274 154.332L48 154.908ZM43.086 155.466L40.692 155.106L40.692 157.554L43.086 157.914L43.086 155.466ZM48 146.419L37.254 146.419L37.254 148.435L35.994 147.733L35.994 145.087L48 145.087L48 146.419ZM48 139.429L35.994 139.429L35.994 136.981C35.994 135.133 36.462 133.657 37.398 132.553C38.538 131.185 40.074 130.501 42.006 130.501C43.878 130.501 45.414 131.203 46.614 132.607C47.106 133.183 47.46 133.801 47.676 134.461C47.892 135.121 48 135.967 48 136.999L48 139.429ZM37.254 138.097L46.74 138.097L46.74 136.927C46.74 135.499 46.38 134.353 45.66 133.489C44.748 132.409 43.53 131.869 42.006 131.869C40.566 131.869 39.414 132.331 38.55 133.255C37.686 134.179 37.254 135.403 37.254 136.927L37.254 138.097ZM48 120.946L48 128.704L42.942 124.33C42.066 123.586 41.484 123.118 41.196 122.926C40.56 122.482 39.948 122.26 39.36 122.26C38.676 122.26 38.118 122.482 37.686 122.926C37.242 123.37 37.02 123.946 37.02 124.654C37.02 125.518 37.374 126.184 38.082 126.652C38.466 126.904 38.94 127.036 39.504 127.048L39.504 128.38C38.484 128.332 37.656 128.032 37.02 127.48C36.204 126.76 35.796 125.812 35.796 124.636C35.796 123.568 36.138 122.686 36.822 121.99C37.494 121.282 38.346 120.928 39.378 120.928C40.182 120.928 41.04 121.246 41.952 121.882C42.396 122.206 43.062 122.752 43.95 123.52L46.776 126.022L46.776 120.946L48 120.946ZM46.416 111.64C47.616 112.468 48.216 113.494 48.216 114.718C48.216 115.942 47.616 116.968 46.416 117.796C45.252 118.6 43.782 119.002 42.006 119.002C40.23 119.002 38.76 118.6 37.596 117.796C36.396 116.968 35.796 115.942 35.796 114.718C35.796 113.494 36.396 112.468 37.596 111.64C38.76 110.836 40.23 110.434 42.006 110.434C43.782 110.434 45.252 110.836 46.416 111.64ZM38.352 112.648C37.464 113.2 37.02 113.89 37.02 114.718C37.02 115.546 37.464 116.236 38.352 116.788C39.288 117.376 40.506 117.67 42.006 117.67C43.506 117.67 44.724 117.376 45.66 116.788C46.548 116.236 46.992 115.546 46.992 114.718C46.992 113.89 46.548 113.2 45.66 112.648C44.724 112.06 43.506 111.766 42.006 111.766C40.506 111.766 39.288 112.06 38.352 112.648ZM48 100.942L48 108.7L42.942 104.326C42.066 103.582 41.484 103.114 41.196 102.922C40.56 102.478 39.948 102.256 39.36 102.256C38.676 102.256 38.118 102.478 37.686 102.922C37.242 103.366 37.02 103.942 37.02 104.65C37.02 105.514 37.374 106.18 38.082 106.648C38.466 106.9 38.94 107.032 39.504 107.044L39.504 108.376C38.484 108.328 37.656 108.028 37.02 107.476C36.204 106.756 35.796 105.808 35.796 104.632C35.796 103.564 36.138 102.682 36.822 101.986C37.494 101.278 38.346 100.924 39.378 100.924C40.182 100.924 41.04 101.242 41.952 101.878C42.396 102.202 43.062 102.748 43.95 103.516L46.776 106.018L46.776 100.942L48 100.942ZM47.586 99.5757L37.218 92.7537L37.218 99.3237L35.994 99.3237L35.994 90.5037L48.288 98.5317L47.586 99.5757Z" fill="white"/>
</svg>
