<svg width="1524" height="234" viewBox="0 0 1524 234" fill="none" xmlns="http://www.w3.org/2000/svg">
<path d="M4.788 229V218.254H2.772L3.474 216.994H6.12V229H4.788ZM16.1814 229H8.42344L12.7974 223.942C13.5414 223.066 14.0094 222.484 14.2014 222.196C14.6454 221.56 14.8674 220.948 14.8674 220.36C14.8674 219.676 14.6454 219.118 14.2014 218.686C13.7574 218.242 13.1814 218.02 12.4734 218.02C11.6094 218.02 10.9434 218.374 10.4754 219.082C10.2234 219.466 10.0914 219.94 10.0794 220.504H8.74744C8.79544 219.484 9.09544 218.656 9.64744 218.02C10.3674 217.204 11.3154 216.796 12.4914 216.796C13.5594 216.796 14.4414 217.138 15.1374 217.822C15.8454 218.494 16.1994 219.346 16.1994 220.378C16.1994 221.182 15.8814 222.04 15.2454 222.952C14.9214 223.396 14.3754 224.062 13.6074 224.95L11.1054 227.776H16.1814V229ZM29.0291 222.07V223.618C28.4411 222.874 27.6611 222.502 26.6891 222.502C25.9571 222.502 25.3331 222.754 24.8171 223.258C24.3011 223.75 24.0431 224.428 24.0431 225.292C24.0431 226.156 24.3011 226.834 24.8171 227.326C25.3331 227.818 25.9511 228.064 26.6711 228.064C27.6311 228.064 28.4351 227.674 29.0831 226.894V228.442C28.3751 228.958 27.5831 229.216 26.7071 229.216C25.5431 229.216 24.5831 228.85 23.8271 228.118C23.0831 227.374 22.7111 226.438 22.7111 225.31C22.7111 224.17 23.0891 223.228 23.8451 222.484C24.6011 221.728 25.5551 221.35 26.7071 221.35C27.5711 221.35 28.3451 221.59 29.0291 222.07ZM37.3897 228.1C36.6457 228.844 35.7037 229.216 34.5637 229.216C33.4237 229.216 32.4757 228.844 31.7197 228.1C30.9757 227.356 30.6037 226.42 30.6037 225.292C30.6037 224.152 30.9757 223.21 31.7197 222.466C32.4757 221.722 33.4237 221.35 34.5637 221.35C35.7037 221.35 36.6457 221.722 37.3897 222.466C38.1457 223.21 38.5237 224.152 38.5237 225.292C38.5237 226.42 38.1457 227.356 37.3897 228.1ZM36.4177 223.24C35.9137 222.748 35.2957 222.502 34.5637 222.502C33.8317 222.502 33.2077 222.754 32.6917 223.258C32.1877 223.75 31.9357 224.428 31.9357 225.292C31.9357 226.156 32.1937 226.834 32.7097 227.326C33.2257 227.818 33.8437 228.064 34.5637 228.064C35.2837 228.064 35.9017 227.818 36.4177 227.326C36.9337 226.834 37.1917 226.156 37.1917 225.292C37.1917 224.416 36.9337 223.732 36.4177 223.24ZM40.5111 215.878H41.8071V229H40.5111V215.878ZM45.5513 221.53V225.886C45.5513 226.642 45.6713 227.176 45.9113 227.488C46.2113 227.872 46.6493 228.064 47.2253 228.064C47.8013 228.064 48.2393 227.872 48.5393 227.488C48.7793 227.176 48.8993 226.642 48.8993 225.886V221.53H50.1953V226.03C50.1953 227.038 49.9673 227.788 49.5113 228.28C48.9233 228.904 48.1613 229.216 47.2253 229.216C46.2893 229.216 45.5273 228.904 44.9393 228.28C44.4833 227.788 44.2553 227.038 44.2553 226.03V221.53H45.5513ZM52.64 229V221.53H53.936V222.322C54.38 221.674 54.998 221.35 55.79 221.35C56.69 221.35 57.368 221.752 57.824 222.556C58.34 221.752 59.09 221.35 60.074 221.35C61.694 221.35 62.504 222.322 62.504 224.266V229H61.208V224.464C61.208 224.104 61.184 223.804 61.136 223.564C61.1 223.312 60.974 223.072 60.758 222.844C60.554 222.616 60.26 222.502 59.876 222.502C58.772 222.502 58.22 223.282 58.22 224.842V229H56.924V224.572C56.924 223.192 56.474 222.502 55.574 222.502C54.482 222.502 53.936 223.312 53.936 224.932V229H52.64ZM64.9623 229V221.53H66.2583V222.394C66.7863 221.698 67.5003 221.35 68.4003 221.35C69.3603 221.35 70.0743 221.692 70.5423 222.376C70.8303 222.796 70.9743 223.462 70.9743 224.374V229H69.6783V224.41C69.6783 223.798 69.5643 223.342 69.3363 223.042C69.0603 222.682 68.6523 222.502 68.1123 222.502C67.5603 222.502 67.1223 222.694 66.7983 223.078C66.4383 223.498 66.2583 224.17 66.2583 225.094V229H64.9623ZM77.5574 222.7L76.4954 223.258C76.2914 222.754 75.9434 222.502 75.4514 222.502C75.1994 222.502 74.9834 222.574 74.8034 222.718C74.6354 222.862 74.5514 223.072 74.5514 223.348C74.5514 223.6 74.6294 223.792 74.7854 223.924C74.9534 224.044 75.2774 224.206 75.7574 224.41C76.7054 224.806 77.3294 225.19 77.6294 225.562C77.8934 225.886 78.0254 226.288 78.0254 226.768C78.0254 227.524 77.7794 228.124 77.2874 228.568C76.8074 229 76.1954 229.216 75.4514 229.216C75.3074 229.216 75.1514 229.198 74.9834 229.162C74.8154 229.138 74.5814 229.078 74.2814 228.982C73.9934 228.874 73.7174 228.676 73.4534 228.388C73.1894 228.1 72.9854 227.74 72.8414 227.308L73.9574 226.84C74.2574 227.656 74.7614 228.064 75.4694 228.064C75.8654 228.064 76.1654 227.944 76.3694 227.704C76.5854 227.464 76.6934 227.188 76.6934 226.876C76.6934 226.708 76.6634 226.564 76.6034 226.444C76.5554 226.312 76.4654 226.198 76.3334 226.102C76.2134 226.006 76.0934 225.928 75.9734 225.868C75.8654 225.808 75.7034 225.73 75.4874 225.634C74.5274 225.214 73.9214 224.848 73.6694 224.536C73.4414 224.248 73.3274 223.882 73.3274 223.438C73.3274 222.79 73.5254 222.28 73.9214 221.908C74.3294 221.536 74.8574 221.35 75.5054 221.35C76.4534 221.35 77.1374 221.8 77.5574 222.7Z" fill="#7A7A7A"/>
<path d="M731.88 219.964H730.548C730.584 219.328 730.77 218.74 731.106 218.2C731.706 217.264 732.636 216.796 733.896 216.796C734.964 216.796 735.792 217.114 736.38 217.75C736.98 218.386 737.28 219.148 737.28 220.036C737.28 221.296 736.764 222.184 735.732 222.7C735.888 222.76 736.038 222.844 736.182 222.952C736.338 223.048 736.524 223.204 736.74 223.42C736.956 223.636 737.13 223.936 737.262 224.32C737.394 224.692 737.46 225.118 737.46 225.598C737.46 226.69 737.106 227.566 736.398 228.226C735.702 228.886 734.826 229.216 733.77 229.216C733.062 229.216 732.402 229.054 731.79 228.73C731.178 228.394 730.722 227.866 730.422 227.146C730.266 226.762 730.176 226.342 730.152 225.886H731.484C731.544 226.378 731.688 226.78 731.916 227.092C732.324 227.692 732.942 227.992 733.77 227.992C734.43 227.992 734.988 227.758 735.444 227.29C735.9 226.81 736.128 226.234 736.128 225.562C736.128 224.578 735.732 223.906 734.94 223.546C734.544 223.354 734.088 223.27 733.572 223.294V222.106C734.088 222.142 734.544 222.058 734.94 221.854C735.612 221.506 735.948 220.912 735.948 220.072C735.948 219.484 735.78 218.998 735.444 218.614C735.108 218.218 734.592 218.02 733.896 218.02C733.224 218.02 732.708 218.248 732.348 218.704C732.072 219.064 731.916 219.484 731.88 219.964ZM747.42 227.416C746.592 228.616 745.566 229.216 744.342 229.216C743.118 229.216 742.092 228.616 741.264 227.416C740.46 226.252 740.058 224.782 740.058 223.006C740.058 221.23 740.46 219.76 741.264 218.596C742.092 217.396 743.118 216.796 744.342 216.796C745.566 216.796 746.592 217.396 747.42 218.596C748.224 219.76 748.626 221.23 748.626 223.006C748.626 224.782 748.224 226.252 747.42 227.416ZM746.412 219.352C745.86 218.464 745.17 218.02 744.342 218.02C743.514 218.02 742.824 218.464 742.272 219.352C741.684 220.288 741.39 221.506 741.39 223.006C741.39 224.506 741.684 225.724 742.272 226.66C742.824 227.548 743.514 227.992 744.342 227.992C745.17 227.992 745.86 227.548 746.412 226.66C747 225.724 747.294 224.506 747.294 223.006C747.294 221.506 747 220.288 746.412 219.352ZM761.402 224.23V222.97H766.406V223.258C766.406 224.746 766.022 226.012 765.254 227.056C764.186 228.496 762.698 229.216 760.79 229.216C759.014 229.216 757.532 228.622 756.344 227.434C755.156 226.234 754.562 224.758 754.562 223.006C754.562 221.254 755.156 219.784 756.344 218.596C757.544 217.396 759.038 216.796 760.826 216.796C762.242 216.796 763.466 217.192 764.498 217.984C765.026 218.392 765.488 218.866 765.884 219.406L764.894 220.306C764.546 219.814 764.168 219.4 763.76 219.064C762.932 218.392 761.96 218.056 760.844 218.056C759.416 218.056 758.24 218.53 757.316 219.478C756.392 220.426 755.93 221.608 755.93 223.024C755.93 224.056 756.182 224.962 756.686 225.742C757.19 226.51 757.802 227.074 758.522 227.434C759.254 227.782 760.016 227.956 760.808 227.956C761.6 227.956 762.32 227.776 762.968 227.416C763.628 227.044 764.132 226.552 764.48 225.94C764.78 225.424 764.942 224.854 764.966 224.23H761.402ZM769.823 221.53V225.886C769.823 226.642 769.943 227.176 770.183 227.488C770.483 227.872 770.921 228.064 771.497 228.064C772.073 228.064 772.511 227.872 772.811 227.488C773.051 227.176 773.171 226.642 773.171 225.886V221.53H774.467V226.03C774.467 227.038 774.239 227.788 773.783 228.28C773.195 228.904 772.433 229.216 771.497 229.216C770.561 229.216 769.799 228.904 769.211 228.28C768.755 227.788 768.527 227.038 768.527 226.03V221.53H769.823ZM779.54 222.718H778.244V229H776.948V222.718H776.156V221.53H776.948V218.83H778.244V221.53H779.54V222.718ZM783.741 222.718H782.445V229H781.149V222.718H780.357V221.53H781.149V218.83H782.445V221.53H783.741V222.718ZM790.506 226.498L791.586 227.092C791.334 227.572 791.028 227.974 790.668 228.298C789.984 228.91 789.156 229.216 788.184 229.216C787.176 229.216 786.306 228.892 785.574 228.244C784.854 227.584 784.494 226.606 784.494 225.31C784.494 224.17 784.818 223.228 785.466 222.484C786.126 221.728 787.008 221.35 788.112 221.35C789.36 221.35 790.302 221.806 790.938 222.718C791.442 223.438 791.676 224.374 791.64 225.526H785.826C785.838 226.282 786.072 226.894 786.528 227.362C786.984 227.83 787.542 228.064 788.202 228.064C788.79 228.064 789.3 227.884 789.732 227.524C790.068 227.236 790.326 226.894 790.506 226.498ZM785.916 224.446H790.308C790.2 223.858 789.942 223.39 789.534 223.042C789.138 222.682 788.664 222.502 788.112 222.502C787.572 222.502 787.092 222.688 786.672 223.06C786.264 223.42 786.012 223.882 785.916 224.446ZM793.628 229V221.53H794.924V222.34C795.344 221.68 795.908 221.35 796.616 221.35C796.976 221.35 797.36 221.452 797.768 221.656L797.156 222.826C796.916 222.658 796.664 222.574 796.4 222.574C795.944 222.574 795.596 222.73 795.356 223.042C795.068 223.426 794.924 224.098 794.924 225.058V229H793.628Z" fill="#7A7A7A"/>
<path d="M1445.66 229H1437.9L1442.27 223.942C1443.02 223.066 1443.49 222.484 1443.68 222.196C1444.12 221.56 1444.34 220.948 1444.34 220.36C1444.34 219.676 1444.12 219.118 1443.68 218.686C1443.23 218.242 1442.66 218.02 1441.95 218.02C1441.09 218.02 1440.42 218.374 1439.95 219.082C1439.7 219.466 1439.57 219.94 1439.56 220.504H1438.22C1438.27 219.484 1438.57 218.656 1439.12 218.02C1439.84 217.204 1440.79 216.796 1441.97 216.796C1443.04 216.796 1443.92 217.138 1444.61 217.822C1445.32 218.494 1445.68 219.346 1445.68 220.378C1445.68 221.182 1445.36 222.04 1444.72 222.952C1444.4 223.396 1443.85 224.062 1443.08 224.95L1440.58 227.776H1445.66V229ZM1454.96 227.416C1454.14 228.616 1453.11 229.216 1451.89 229.216C1450.66 229.216 1449.64 228.616 1448.81 227.416C1448 226.252 1447.6 224.782 1447.6 223.006C1447.6 221.23 1448 219.76 1448.81 218.596C1449.64 217.396 1450.66 216.796 1451.89 216.796C1453.11 216.796 1454.14 217.396 1454.96 218.596C1455.77 219.76 1456.17 221.23 1456.17 223.006C1456.17 224.782 1455.77 226.252 1454.96 227.416ZM1453.96 219.352C1453.4 218.464 1452.71 218.02 1451.89 218.02C1451.06 218.02 1450.37 218.464 1449.82 219.352C1449.23 220.288 1448.93 221.506 1448.93 223.006C1448.93 224.506 1449.23 225.724 1449.82 226.66C1450.37 227.548 1451.06 227.992 1451.89 227.992C1452.71 227.992 1453.4 227.548 1453.96 226.66C1454.54 225.724 1454.84 224.506 1454.84 223.006C1454.84 221.506 1454.54 220.288 1453.96 219.352ZM1465.19 227.416C1464.37 228.616 1463.34 229.216 1462.12 229.216C1460.89 229.216 1459.87 228.616 1459.04 227.416C1458.23 226.252 1457.83 224.782 1457.83 223.006C1457.83 221.23 1458.23 219.76 1459.04 218.596C1459.87 217.396 1460.89 216.796 1462.12 216.796C1463.34 216.796 1464.37 217.396 1465.19 218.596C1466 219.76 1466.4 221.23 1466.4 223.006C1466.4 224.782 1466 226.252 1465.19 227.416ZM1464.19 219.352C1463.63 218.464 1462.94 218.02 1462.12 218.02C1461.29 218.02 1460.6 218.464 1460.05 219.352C1459.46 220.288 1459.16 221.506 1459.16 223.006C1459.16 224.506 1459.46 225.724 1460.05 226.66C1460.6 227.548 1461.29 227.992 1462.12 227.992C1462.94 227.992 1463.63 227.548 1464.19 226.66C1464.77 225.724 1465.07 224.506 1465.07 223.006C1465.07 221.506 1464.77 220.288 1464.19 219.352ZM1473.94 229H1472.57L1474.57 216.328L1479.18 226.462L1483.87 216.31L1485.75 229H1484.38L1483.24 220.648L1479.16 229.504L1475.13 220.648L1473.94 229ZM1493.92 222.592V221.53H1495.22V229H1493.92V227.956C1493.27 228.796 1492.42 229.216 1491.37 229.216C1490.36 229.216 1489.5 228.868 1488.79 228.172C1488.08 227.476 1487.73 226.504 1487.73 225.256C1487.73 224.032 1488.08 223.078 1488.77 222.394C1489.48 221.698 1490.35 221.35 1491.37 221.35C1492.45 221.35 1493.3 221.764 1493.92 222.592ZM1491.51 222.502C1490.83 222.502 1490.24 222.748 1489.76 223.24C1489.3 223.72 1489.06 224.392 1489.06 225.256C1489.06 226.084 1489.28 226.762 1489.71 227.29C1490.15 227.806 1490.75 228.064 1491.51 228.064C1492.27 228.064 1492.87 227.794 1493.31 227.254C1493.77 226.714 1493.99 226.054 1493.99 225.274C1493.99 224.386 1493.74 223.702 1493.24 223.222C1492.73 222.742 1492.16 222.502 1491.51 222.502ZM1497.67 229V221.53H1498.97V222.34C1499.39 221.68 1499.95 221.35 1500.66 221.35C1501.02 221.35 1501.41 221.452 1501.81 221.656L1501.2 222.826C1500.96 222.658 1500.71 222.574 1500.45 222.574C1499.99 222.574 1499.64 222.73 1499.4 223.042C1499.11 223.426 1498.97 224.098 1498.97 225.058V229H1497.67ZM1508.28 222.592V221.53H1509.58V228.82C1509.58 230.128 1509.34 231.106 1508.86 231.754C1508.18 232.678 1507.18 233.14 1505.87 233.14C1504.77 233.14 1503.88 232.804 1503.21 232.132C1502.56 231.484 1502.24 230.68 1502.24 229.72H1503.51C1503.51 230.32 1503.71 230.836 1504.09 231.268C1504.52 231.748 1505.12 231.988 1505.89 231.988C1506.79 231.988 1507.45 231.64 1507.87 230.944C1508.15 230.5 1508.28 229.864 1508.28 229.036V227.956C1507.64 228.796 1506.78 229.216 1505.73 229.216C1504.7 229.216 1503.84 228.88 1503.17 228.208C1502.45 227.488 1502.09 226.504 1502.09 225.256C1502.09 224.044 1502.45 223.078 1503.17 222.358C1503.87 221.686 1504.72 221.35 1505.73 221.35C1506.8 221.35 1507.65 221.764 1508.28 222.592ZM1505.87 222.502C1505.21 222.502 1504.65 222.736 1504.18 223.204C1503.68 223.72 1503.42 224.404 1503.42 225.256C1503.42 226.204 1503.71 226.936 1504.27 227.452C1504.71 227.86 1505.25 228.064 1505.87 228.064C1506.54 228.064 1507.09 227.854 1507.51 227.434C1508.07 226.894 1508.36 226.174 1508.36 225.274C1508.36 224.374 1508.09 223.672 1507.56 223.168C1507.12 222.724 1506.56 222.502 1505.87 222.502ZM1512.03 221.53H1513.33V229H1512.03V221.53ZM1512.03 219.352C1511.85 219.172 1511.76 218.956 1511.76 218.704C1511.76 218.452 1511.85 218.236 1512.03 218.056C1512.21 217.876 1512.43 217.786 1512.68 217.786C1512.93 217.786 1513.15 217.876 1513.33 218.056C1513.51 218.236 1513.6 218.452 1513.6 218.704C1513.6 218.956 1513.51 219.172 1513.33 219.352C1513.15 219.532 1512.93 219.622 1512.68 219.622C1512.43 219.622 1512.21 219.532 1512.03 219.352ZM1515.78 229V221.53H1517.07V222.394C1517.6 221.698 1518.32 221.35 1519.22 221.35C1520.18 221.35 1520.89 221.692 1521.36 222.376C1521.65 222.796 1521.79 223.462 1521.79 224.374V229H1520.49V224.41C1520.49 223.798 1520.38 223.342 1520.15 223.042C1519.88 222.682 1519.47 222.502 1518.93 222.502C1518.38 222.502 1517.94 222.694 1517.61 223.078C1517.25 223.498 1517.07 224.17 1517.07 225.094V229H1515.78Z" fill="#7A7A7A"/>
<path d="M7.28 11.592C6.544 12.6587 5.632 13.192 4.544 13.192C3.456 13.192 2.544 12.6587 1.808 11.592C1.09333 10.5573 0.736 9.25067 0.736 7.672C0.736 6.09333 1.09333 4.78667 1.808 3.752C2.544 2.68533 3.456 2.152 4.544 2.152C5.632 2.152 6.544 2.68533 7.28 3.752C7.99467 4.78667 8.352 6.09333 8.352 7.672C8.352 9.25067 7.99467 10.5573 7.28 11.592ZM6.384 4.424C5.89333 3.63467 5.28 3.24 4.544 3.24C3.808 3.24 3.19467 3.63467 2.704 4.424C2.18133 5.256 1.92 6.33867 1.92 7.672C1.92 9.00533 2.18133 10.088 2.704 10.92C3.19467 11.7093 3.808 12.104 4.544 12.104C5.28 12.104 5.89333 11.7093 6.384 10.92C6.90667 10.088 7.168 9.00533 7.168 7.672C7.168 6.33867 6.90667 5.256 6.384 4.424Z" fill="#7A7A7A"/>
<path d="M1493.97 13V3.448H1492.17L1492.8 2.328H1495.15V13H1493.97ZM1500.72 13.256L1499.82 12.6L1502.27 9.192C1501.96 9.288 1501.65 9.336 1501.33 9.336C1500.31 9.336 1499.48 9 1498.83 8.328C1498.19 7.656 1497.87 6.81867 1497.87 5.816C1497.87 4.74933 1498.21 3.87467 1498.9 3.192C1499.59 2.49867 1500.47 2.152 1501.54 2.152C1502.33 2.152 1503.01 2.344 1503.58 2.728C1504.17 3.10133 1504.59 3.56 1504.85 4.104C1505.1 4.63733 1505.23 5.19733 1505.23 5.784C1505.23 6.60533 1504.94 7.42133 1504.35 8.232L1500.72 13.256ZM1501.55 3.24C1500.83 3.24 1500.23 3.48533 1499.76 3.976C1499.29 4.456 1499.06 5.05867 1499.06 5.784C1499.06 6.49867 1499.29 7.09067 1499.76 7.56C1500.24 8.01867 1500.84 8.248 1501.57 8.248C1502.29 8.248 1502.89 8.01333 1503.34 7.544C1503.81 7.07467 1504.05 6.488 1504.05 5.784C1504.05 5.05867 1503.81 4.456 1503.34 3.976C1502.89 3.48533 1502.29 3.24 1501.55 3.24ZM1513.2 13H1506.31L1510.2 8.504C1510.86 7.72533 1511.27 7.208 1511.44 6.952C1511.84 6.38667 1512.04 5.84267 1512.04 5.32C1512.04 4.712 1511.84 4.216 1511.44 3.832C1511.05 3.43733 1510.54 3.24 1509.91 3.24C1509.14 3.24 1508.55 3.55467 1508.13 4.184C1507.91 4.52533 1507.79 4.94667 1507.78 5.448H1506.6C1506.64 4.54133 1506.91 3.80533 1507.4 3.24C1508.04 2.51467 1508.88 2.152 1509.92 2.152C1510.87 2.152 1511.66 2.456 1512.28 3.064C1512.91 3.66133 1513.22 4.41867 1513.22 5.336C1513.22 6.05067 1512.94 6.81333 1512.37 7.624C1512.08 8.01867 1511.6 8.61067 1510.92 9.4L1508.69 11.912H1513.2V13ZM1521.48 11.592C1520.74 12.6587 1519.83 13.192 1518.74 13.192C1517.65 13.192 1516.74 12.6587 1516 11.592C1515.29 10.5573 1514.93 9.25067 1514.93 7.672C1514.93 6.09333 1515.29 4.78667 1516 3.752C1516.74 2.68533 1517.65 2.152 1518.74 2.152C1519.83 2.152 1520.74 2.68533 1521.48 3.752C1522.19 4.78667 1522.55 6.09333 1522.55 7.672C1522.55 9.25067 1522.19 10.5573 1521.48 11.592ZM1520.58 4.424C1520.09 3.63467 1519.48 3.24 1518.74 3.24C1518 3.24 1517.39 3.63467 1516.9 4.424C1516.38 5.256 1516.12 6.33867 1516.12 7.672C1516.12 9.00533 1516.38 10.088 1516.9 10.92C1517.39 11.7093 1518 12.104 1518.74 12.104C1519.48 12.104 1520.09 11.7093 1520.58 10.92C1521.1 10.088 1521.36 9.00533 1521.36 7.672C1521.36 6.33867 1521.1 5.256 1520.58 4.424Z" fill="#7A7A7A"/>
<line x1="3.5" y1="157" x2="3.5" y2="48" stroke="#0F0F0F"/>
<line x1="1523.5" y1="157" x2="1523.5" y2="48" stroke="#0F0F0F"/>
<line x1="132.5" y1="136" x2="132.5" y2="69" stroke="#0F0F0F"/>
<line x1="103.5" y1="136" x2="103.5" y2="69" stroke="#0F0F0F"/>
<line x1="231.5" y1="136" x2="231.5" y2="69" stroke="#0F0F0F"/>
<line x1="261.5" y1="136" x2="261.5" y2="69" stroke="#0F0F0F"/>
<line x1="361.5" y1="136" x2="361.5" y2="69" stroke="#0F0F0F"/>
<line x1="391.5" y1="136" x2="391.5" y2="69" stroke="#0F0F0F"/>
<line x1="490.5" y1="136" x2="490.5" y2="69" stroke="#0F0F0F"/>
<line x1="520.5" y1="136" x2="520.5" y2="69" stroke="#0F0F0F"/>
<line x1="619.5" y1="136" x2="619.5" y2="69" stroke="#0F0F0F"/>
<line x1="649.5" y1="136" x2="649.5" y2="69" stroke="#0F0F0F"/>
<line x1="748.5" y1="136" x2="748.5" y2="69" stroke="#0F0F0F"/>
<line x1="778.5" y1="136" x2="778.5" y2="69" stroke="#0F0F0F"/>
<line x1="877.5" y1="136" x2="877.5" y2="69" stroke="#0F0F0F"/>
<line x1="907.5" y1="136" x2="907.5" y2="69" stroke="#0F0F0F"/>
<line x1="1006.5" y1="136" x2="1006.5" y2="69" stroke="#0F0F0F"/>
<line x1="1036.5" y1="136" x2="1036.5" y2="69" stroke="#0F0F0F"/>
<line x1="1136.5" y1="136" x2="1136.5" y2="69" stroke="#0F0F0F"/>
<line x1="1166.5" y1="136" x2="1166.5" y2="69" stroke="#0F0F0F"/>
<line x1="1265.5" y1="136" x2="1265.5" y2="69" stroke="#0F0F0F"/>
<line x1="1295.5" y1="136" x2="1295.5" y2="69" stroke="#0F0F0F"/>
<line x1="1394.5" y1="136" x2="1394.5" y2="69" stroke="#0F0F0F"/>
<line x1="1424.5" y1="136" x2="1424.5" y2="69" stroke="#0F0F0F"/>
</svg>
