<svg width="154" height="12" viewBox="0 0 154 12" fill="none" xmlns="http://www.w3.org/2000/svg">
<path d="M0 11.807V0.249023H4.80081C8.35468 0.249023 10.9735 2.39628 10.9735 5.99647C10.9735 9.59637 8.41719 11.7439 4.86333 11.7439H0V11.807ZM7.98076 6.05959C7.98076 4.29105 6.92077 2.90153 4.86333 2.90153H2.99284V9.2175H4.86333C6.79603 9.2175 7.98076 7.76471 7.98076 6.05959Z" fill="#858585"/>
<path d="M12.0995 6.06C12.0995 2.52293 14.7183 0.123047 18.2099 0.123047C21.7014 0.123047 24.2577 2.5862 24.2577 6.06C24.2577 9.53366 21.639 11.997 18.2099 11.997C14.656 11.997 12.0995 9.53366 12.0995 6.06ZM21.265 6.06C21.265 4.16508 20.0802 2.71244 18.2099 2.71244C16.3394 2.71244 15.0925 4.16508 15.0925 6.06C15.0925 7.95463 16.2769 9.40727 18.2099 9.40727C20.0179 9.40727 21.265 7.89151 21.265 6.06Z" fill="#858585"/>
<path d="M32.3625 11.807L30.4297 7.95422H28.9333V11.807H26.0029V0.249023H31.6766C34.1707 0.249023 35.6047 1.95414 35.6047 4.10155C35.6047 6.12271 34.42 7.19634 33.3601 7.57535L35.6671 11.807H32.3625ZM32.6744 4.10155C32.6744 3.34367 32.0508 2.90153 31.2402 2.90153H28.9333V5.36483H31.2402C31.9883 5.36483 32.6744 4.9227 32.6744 4.10155Z" fill="#858585"/>
<path d="M36.7848 6.06C36.7848 2.52293 39.4034 0.123047 42.8949 0.123047C46.3866 0.123047 48.9428 2.5862 48.9428 6.06C48.9428 9.53366 46.3242 11.997 42.8949 11.997C39.4034 11.997 36.7848 9.53366 36.7848 6.06ZM46.0125 6.06C46.0125 4.16508 44.8278 2.71244 42.9573 2.71244C41.0868 2.71244 39.8398 4.16508 39.8398 6.06C39.8398 7.95463 41.0244 9.40727 42.9573 9.40727C44.7654 9.40727 46.0125 7.89151 46.0125 6.06Z" fill="#858585"/>
<path d="M58.3621 11.807V7.19634H53.6246V11.807H50.6941V0.249023H53.6246V4.60695H58.3621V0.312144H61.2932V11.807H58.3621Z" fill="#858585"/>
<path d="M63.0398 6.06C63.0398 2.52293 65.6575 0.123047 69.1493 0.123047C72.6411 0.123047 75.1974 2.5862 75.1974 6.06C75.1974 9.53366 72.5782 11.997 69.1493 11.997C65.6575 11.997 63.0398 9.53366 63.0398 6.06ZM72.2048 6.06C72.2048 4.16508 71.0189 2.71244 69.0879 2.71244C67.2168 2.71244 65.9694 4.16508 65.9694 6.06C65.9694 7.95463 67.1538 9.40727 69.0879 9.40727C71.0189 9.40727 72.2048 7.89151 72.2048 6.06Z" fill="#858585"/>
<path d="M79.5586 11.807L75.2557 0.249023H78.5616L81.3668 8.58586L84.1719 0.249023H87.4778L83.1749 11.7439H79.5586V11.807Z" fill="#858585"/>
<path d="M88.8961 11.4949V0H93.6969C97.2508 0 99.8696 2.1474 99.8696 5.74745C99.8696 9.3475 97.3133 11.4949 93.7594 11.4949H88.8961ZM96.8769 5.74745C96.8769 3.97891 95.8169 2.58954 93.7594 2.58954H91.889V8.90536H93.7594C95.6922 8.90536 96.8769 7.45272 96.8769 5.74745Z" fill="#858585"/>
<path d="M102.39 11.4949V0H110.682V2.58954H105.258V4.35793H110.557V6.94746H105.258V8.90536H110.682V11.4949H102.39Z" fill="#858585"/>
<path d="M150.601 11.4949L145.8 4.86318V11.558H142.87V0H145.863L150.476 6.31582V0H153.406V11.4949H150.601Z" fill="#858585"/>
<path d="M129.376 5.93666C129.376 2.27349 132.12 0 135.549 0C138.105 0 139.602 1.38922 140.412 2.77875L137.981 4.04203C137.544 3.284 136.671 2.58924 135.549 2.58924C133.679 2.58924 132.369 4.04218 132.369 5.93666C132.369 7.83144 133.679 9.28438 135.549 9.28438C136.359 9.28438 137.232 8.96833 137.669 8.58946V7.7052H135.113V5.11581H140.599V9.72651C139.352 11.116 137.731 12 135.549 12C132.182 11.9369 129.376 9.59997 129.376 5.93666Z" fill="#858585"/>
<path d="M124.879 11.4949V0H127.809V11.4949H124.879Z" fill="#858585"/>
<path d="M112.884 10.0423L114.443 7.83173C115.254 8.65273 116.5 9.34749 118.059 9.34749C119.057 9.34749 119.68 8.96863 119.68 8.4001C119.68 6.82107 113.258 8.08436 113.258 3.66331C113.258 1.70527 114.879 0 117.81 0C119.618 0 121.239 0.568368 122.424 1.57888L120.803 3.72643C119.867 2.90528 118.62 2.52641 117.498 2.52641C116.625 2.52641 116.251 2.84216 116.251 3.34741C116.251 4.80021 122.673 3.72643 122.673 8.02124C122.673 10.358 120.99 11.8738 117.935 11.8738C115.628 11.8738 114.007 11.1159 112.884 10.0423Z" fill="#858585"/>
</svg>
