<svg width="1520" height="179" fill="none" xmlns="http://www.w3.org/2000/svg"><path fill="#1D2027" d="M0 0h387v179H0z"/><path stroke="#fff" stroke-opacity=".08" d="M.5.5h386v178H.5z"/><path fill="#5B433F" d="M1003 0h517v179h-517z"/><path fill="#262930" d="M387 0h259v179H387z"/><path fill="#1B1D23" d="M646 0h124v179H646z"/><path fill="#7B5F54" d="M770 0h233v179H770z"/><path d="M433 154.908v1.314l-3.726-.576v2.448l3.726.576v1.314l-3.726-.576v1.98l-1.188-.18v-1.98l-2.394-.36v1.98l-1.188-.18v-1.98l-3.51-.54v-1.314l3.51.54v-2.448l-3.51-.54v-1.314l3.51.54v-1.98l1.188.18v1.98l2.394.36v-1.98l1.188.18v1.98l3.726.576zm-4.914.558l-2.394-.36v2.448l2.394.36v-2.448zM433 142.549v7.758l-5.058-4.374c-.876-.744-1.458-1.212-1.746-1.404-.636-.444-1.248-.666-1.836-.666-.684 0-1.242.222-1.674.666-.444.444-.666 1.02-.666 1.728 0 .864.354 1.53 1.062 1.998.384.252.858.384 1.422.396v1.332c-1.02-.048-1.848-.348-2.484-.9-.816-.72-1.224-1.668-1.224-2.844 0-1.068.342-1.95 1.026-2.646.672-.708 1.524-1.062 2.556-1.062.804 0 1.662.318 2.574.954.444.324 1.11.87 1.998 1.638l2.826 2.502v-5.076H433zm-12.294-6.952l.756-1.008 3.834 2.754a3.45 3.45 0 01-.162-1.062c0-1.14.378-2.07 1.134-2.79.756-.732 1.698-1.098 2.826-1.098 1.2 0 2.19.39 2.97 1.17.768.768 1.152 1.752 1.152 2.952 0 .888-.21 1.662-.63 2.322-.432.648-.948 1.116-1.548 1.404a4.43 4.43 0 01-1.908.432c-.912 0-1.83-.33-2.754-.99l-5.67-4.086zm11.286.936c0-.816-.27-1.488-.81-2.016-.552-.528-1.236-.792-2.052-.792-.804 0-1.464.27-1.98.81-.528.528-.792 1.2-.792 2.016 0 .816.264 1.488.792 2.016.528.516 1.188.774 1.98.774.816 0 1.5-.258 2.052-.774.54-.528.81-1.206.81-2.034zM433 123.424v7.758l-5.058-4.374c-.876-.744-1.458-1.212-1.746-1.404-.636-.444-1.248-.666-1.836-.666-.684 0-1.242.222-1.674.666-.444.444-.666 1.02-.666 1.728 0 .864.354 1.53 1.062 1.998.384.252.858.384 1.422.396v1.332c-1.02-.048-1.848-.348-2.484-.9-.816-.72-1.224-1.668-1.224-2.844 0-1.068.342-1.95 1.026-2.646.672-.708 1.524-1.062 2.556-1.062.804 0 1.662.318 2.574.954.444.324 1.11.87 1.998 1.638l2.826 2.502v-5.076H433zm.288-5.08l-.738 1.008-3.834-2.754c.108.348.162.702.162 1.062 0 1.14-.378 2.076-1.134 2.808-.756.72-1.698 1.08-2.826 1.08-1.2 0-2.184-.384-2.952-1.152-.78-.78-1.17-1.77-1.17-2.97 0-.888.216-1.656.648-2.304.42-.66.936-1.134 1.548-1.422.6-.288 1.23-.432 1.89-.432.924 0 1.842.33 2.754.99l5.652 4.086zm-11.268-.936c0 .816.276 1.488.828 2.016.54.528 1.218.792 2.034.792.804 0 1.47-.264 1.998-.792.516-.54.774-1.218.774-2.034 0-.816-.264-1.482-.792-1.998-.528-.528-1.188-.792-1.98-.792-.816 0-1.494.264-2.034.792-.552.516-.828 1.188-.828 2.016zm1.944-7.313v1.332a3.682 3.682 0 01-1.764-.558c-.936-.6-1.404-1.53-1.404-2.79 0-1.068.318-1.896.954-2.484.636-.6 1.398-.9 2.286-.9 1.26 0 2.148.516 2.664 1.548.06-.156.144-.306.252-.45.096-.156.252-.342.468-.558.216-.216.516-.39.9-.522a3.811 3.811 0 011.278-.198c1.092 0 1.968.354 2.628 1.062.66.696.99 1.572.99 2.628 0 .708-.162 1.368-.486 1.98-.336.612-.864 1.068-1.584 1.368a3.864 3.864 0 01-1.26.27v-1.332c.492-.06.894-.204 1.206-.432.6-.408.9-1.026.9-1.854 0-.66-.234-1.218-.702-1.674a2.42 2.42 0 00-1.728-.684c-.984 0-1.656.396-2.016 1.188-.192.396-.276.852-.252 1.368h-1.188c.036-.516-.048-.972-.252-1.368-.348-.672-.942-1.008-1.782-1.008-.588 0-1.074.168-1.458.504-.396.336-.594.852-.594 1.548 0 .672.228 1.188.684 1.548.36.276.78.432 1.26.468zm7.452-15.54c1.2.827 1.8 1.853 1.8 3.077s-.6 2.25-1.8 3.078c-1.164.804-2.634 1.206-4.41 1.206-1.776 0-3.246-.402-4.41-1.206-1.2-.828-1.8-1.854-1.8-3.078 0-1.224.6-2.25 1.8-3.078 1.164-.804 2.634-1.206 4.41-1.206 1.776 0 3.246.402 4.41 1.206zm-8.064 1.007c-.888.552-1.332 1.242-1.332 2.07 0 .828.444 1.518 1.332 2.07.936.588 2.154.882 3.654.882s2.718-.294 3.654-.882c.888-.552 1.332-1.242 1.332-2.07 0-.828-.444-1.518-1.332-2.07-.936-.588-2.154-.882-3.654-.882s-2.718.294-3.654.882zM692 153.908v1.314l-3.726-.576v2.448l3.726.576v1.314l-3.726-.576v1.98l-1.188-.18v-1.98l-2.394-.36v1.98l-1.188-.18v-1.98l-3.51-.54v-1.314l3.51.54v-2.448l-3.51-.54v-1.314l3.51.54v-1.98l1.188.18v1.98l2.394.36v-1.98l1.188.18v1.98l3.726.576zm-4.914.558l-2.394-.36v2.448l2.394.36v-2.448zm4.914-9.047h-10.746v2.016l-1.26-.702v-2.646H692v1.332zm-12.006-6.99v-2.16c0-1.2.252-2.118.756-2.754.552-.72 1.38-1.08 2.484-1.08 1.032 0 1.818.396 2.358 1.188.192-.768.582-1.338 1.17-1.71a3.28 3.28 0 011.854-.576c.54 0 1.038.12 1.494.36a3.2 3.2 0 011.098.864c.528.672.792 1.632.792 2.88v2.988h-12.006zm1.26-1.332h4.014v-1.008c0-.18-.006-.354-.018-.522a3.808 3.808 0 00-.144-.594 2.11 2.11 0 00-.324-.612c-.132-.18-.33-.33-.594-.45-.264-.12-.57-.18-.918-.18-.372 0-.69.072-.954.216-.276.144-.48.306-.612.486s-.234.396-.306.648a3.425 3.425 0 00-.126.576 4.372 4.372 0 00-.018.396v1.044zm5.202 0h4.284v-1.53c0-.972-.168-1.674-.504-2.106-.384-.528-.936-.792-1.656-.792-.804 0-1.392.342-1.764 1.026-.24.432-.36 1.11-.36 2.034v1.368zM692 125.644h-10.746v2.016l-1.26-.702v-2.646H692v1.332zm0-6.991h-12.006v-2.448c0-1.848.468-3.324 1.404-4.428 1.14-1.368 2.676-2.052 4.608-2.052 1.872 0 3.408.702 4.608 2.106a5.46 5.46 0 011.062 1.854c.216.66.324 1.506.324 2.538v2.43zm-10.746-1.332h9.486v-1.17c0-1.428-.36-2.574-1.08-3.438-.912-1.08-2.13-1.62-3.654-1.62-1.44 0-2.592.462-3.456 1.386-.864.924-1.296 2.148-1.296 3.672v1.17zM692 100.17v7.758l-5.058-4.374c-.876-.744-1.458-1.212-1.746-1.404-.636-.444-1.248-.666-1.836-.666-.684 0-1.242.222-1.674.666-.444.444-.666 1.02-.666 1.728 0 .864.354 1.53 1.062 1.998.384.252.858.384 1.422.396v1.332c-1.02-.048-1.848-.348-2.484-.9-.816-.72-1.224-1.668-1.224-2.844 0-1.068.342-1.95 1.026-2.646.672-.708 1.524-1.062 2.556-1.062.804 0 1.662.318 2.574.954.444.324 1.11.87 1.998 1.638l2.826 2.502v-5.076H692zm-9.036-3.767v1.332a3.682 3.682 0 01-1.764-.558c-.936-.6-1.404-1.53-1.404-2.79 0-1.068.318-1.896.954-2.484.636-.6 1.398-.9 2.286-.9 1.26 0 2.148.516 2.664 1.548.06-.156.144-.306.252-.45.096-.156.252-.342.468-.558.216-.216.516-.39.9-.522a3.811 3.811 0 011.278-.198c1.092 0 1.968.354 2.628 1.062.66.696.99 1.572.99 2.628 0 .708-.162 1.368-.486 1.98-.336.612-.864 1.068-1.584 1.368a3.864 3.864 0 01-1.26.27V96.8c.492-.06.894-.204 1.206-.432.6-.408.9-1.026.9-1.854 0-.66-.234-1.218-.702-1.674a2.42 2.42 0 00-1.728-.684c-.984 0-1.656.396-2.016 1.188-.192.396-.276.852-.252 1.368h-1.188c.036-.516-.048-.972-.252-1.368-.348-.672-.942-1.008-1.782-1.008-.588 0-1.074.168-1.458.504-.396.336-.594.852-.594 1.548 0 .672.228 1.188.684 1.548.36.276.78.432 1.26.468zM816 155.908v1.314l-3.726-.576v2.448l3.726.576v1.314l-3.726-.576v1.98l-1.188-.18v-1.98l-2.394-.36v1.98l-1.188-.18v-1.98l-3.51-.54v-1.314l3.51.54v-2.448l-3.51-.54v-1.314l3.51.54v-1.98l1.188.18v1.98l2.394.36v-1.98l1.188.18v1.98l3.726.576zm-4.914.558l-2.394-.36v2.448l2.394.36v-2.448zm4.5-5.195l-10.368-6.822v6.57h-1.224v-8.82l12.294 8.028-.702 1.044zm-11.592-10.842v-2.16c0-1.2.252-2.118.756-2.754.552-.72 1.38-1.08 2.484-1.08 1.032 0 1.818.396 2.358 1.188.192-.768.582-1.338 1.17-1.71a3.28 3.28 0 011.854-.576c.54 0 1.038.12 1.494.36a3.2 3.2 0 011.098.864c.528.672.792 1.632.792 2.88v2.988h-12.006zm1.26-1.332h4.014v-1.008c0-.18-.006-.354-.018-.522a3.808 3.808 0 00-.144-.594 2.11 2.11 0 00-.324-.612c-.132-.18-.33-.33-.594-.45-.264-.12-.57-.18-.918-.18-.372 0-.69.072-.954.216-.276.144-.48.306-.612.486s-.234.396-.306.648a3.425 3.425 0 00-.126.576 4.372 4.372 0 00-.018.396v1.044zm5.202 0h4.284v-1.53c0-.972-.168-1.674-.504-2.106-.384-.528-.936-.792-1.656-.792-.804 0-1.392.342-1.764 1.026-.24.432-.36 1.11-.36 2.034v1.368zm-6.462-15.287h1.224v3.852l2.592.774a3.363 3.363 0 01-.072-.756c0-1.188.396-2.142 1.188-2.862.792-.732 1.782-1.098 2.97-1.098 1.296 0 2.34.426 3.132 1.278.792.84 1.188 1.872 1.188 3.096 0 1.032-.312 1.926-.936 2.682-.372.432-.78.78-1.224 1.044l-.756-1.062c.36-.18.684-.45.972-.81.48-.588.72-1.236.72-1.944 0-.84-.3-1.542-.9-2.106-.6-.564-1.326-.846-2.178-.846-.864 0-1.572.282-2.124.846-.552.552-.828 1.254-.828 2.106 0 .756.276 1.53.828 2.322l-5.796-1.746v-4.77zm0-8.629h1.26v4.14h3.546v-3.996h1.26v3.996H816v1.332h-12.006v-5.472zm0-9.407h1.224v3.852l2.592.774a3.363 3.363 0 01-.072-.756c0-1.188.396-2.142 1.188-2.862.792-.732 1.782-1.098 2.97-1.098 1.296 0 2.34.426 3.132 1.278.792.84 1.188 1.872 1.188 3.096 0 1.032-.312 1.926-.936 2.682-.372.432-.78.78-1.224 1.044l-.756-1.062c.36-.18.684-.45.972-.81.48-.588.72-1.236.72-1.944 0-.84-.3-1.542-.9-2.106-.6-.564-1.326-.846-2.178-.846-.864 0-1.572.282-2.124.846-.552.552-.828 1.254-.828 2.106 0 .756.276 1.53.828 2.322l-5.796-1.746v-4.77zm-.666-8.999h9.18v-1.476h1.224v1.476H816v1.332h-2.268v6.156l-10.404-7.488zm9.18 5.13v-3.798h-5.31l5.31 3.798zM1049 153.908v1.314l-3.73-.576v2.448l3.73.576v1.314l-3.73-.576v1.98l-1.18-.18v-1.98l-2.4-.36v1.98l-1.19-.18v-1.98l-3.51-.54v-1.314l3.51.54v-2.448l-3.51-.54v-1.314l3.51.54v-1.98l1.19.18v1.98l2.4.36v-1.98l1.18.18v1.98l3.73.576zm-4.91.558l-2.4-.36v2.448l2.4.36v-2.448zm-7.1-12.881h1.23v3.852l2.59.774a3.262 3.262 0 01-.07-.756c0-1.188.39-2.142 1.19-2.862.79-.732 1.78-1.098 2.97-1.098 1.29 0 2.34.426 3.13 1.278.79.84 1.19 1.872 1.19 3.096 0 1.032-.32 1.926-.94 2.682-.37.432-.78.78-1.22 1.044l-.76-1.062c.36-.18.68-.45.97-.81.48-.588.72-1.236.72-1.944 0-.84-.3-1.542-.9-2.106-.6-.564-1.32-.846-2.18-.846-.86 0-1.57.282-2.12.846-.55.552-.83 1.254-.83 2.106 0 .756.28 1.53.83 2.322l-5.8-1.746v-4.77zm0-3.156v-2.16c0-1.2.26-2.118.76-2.754.55-.72 1.38-1.08 2.48-1.08 1.04 0 1.82.396 2.36 1.188.19-.768.58-1.338 1.17-1.71a3.31 3.31 0 011.86-.576c.54 0 1.03.12 1.49.36.46.228.82.516 1.1.864.53.672.79 1.632.79 2.88v2.988h-12.01zm1.26-1.332h4.02v-1.008c0-.18-.01-.354-.02-.522a3.537 3.537 0 00-.14-.594 2.33 2.33 0 00-.33-.612c-.13-.18-.33-.33-.59-.45-.27-.12-.57-.18-.92-.18-.37 0-.69.072-.95.216-.28.144-.48.306-.62.486-.13.18-.23.396-.3.648-.07.252-.12.444-.13.576a5.25 5.25 0 00-.02.396v1.044zm5.21 0h4.28v-1.53c0-.972-.17-1.674-.5-2.106-.39-.528-.94-.792-1.66-.792-.8 0-1.39.342-1.76 1.026-.24.432-.36 1.11-.36 2.034v1.368zm-7.13-14.513h9.18v-1.476h1.22v1.476h2.27v1.332h-2.27v6.156l-10.4-7.488zm9.18 5.13v-3.798h-5.31l5.31 3.798zm-5.55-10.393v1.332a3.687 3.687 0 01-1.76-.558c-.94-.6-1.4-1.53-1.4-2.79 0-1.068.31-1.896.95-2.484.64-.6 1.4-.9 2.29-.9 1.26 0 2.14.516 2.66 1.548.06-.156.14-.306.25-.45.1-.156.25-.342.47-.558.22-.216.52-.39.9-.522.37-.132.8-.198 1.28-.198 1.09 0 1.97.354 2.63 1.062.66.696.99 1.572.99 2.628 0 .708-.17 1.368-.49 1.98-.34.612-.86 1.068-1.58 1.368-.39.156-.81.246-1.26.27v-1.332c.49-.06.89-.204 1.2-.432.6-.408.9-1.026.9-1.854 0-.66-.23-1.218-.7-1.674a2.428 2.428 0 00-1.73-.684c-.98 0-1.65.396-2.01 1.188-.2.396-.28.852-.26 1.368h-1.18c.03-.516-.05-.972-.26-1.368-.34-.672-.94-1.008-1.78-1.008-.59 0-1.07.168-1.46.504-.39.336-.59.852-.59 1.548 0 .672.23 1.188.68 1.548.36.276.78.432 1.26.468zm0-9.334v1.332a3.687 3.687 0 01-1.76-.558c-.94-.6-1.4-1.53-1.4-2.79 0-1.068.31-1.896.95-2.484.64-.6 1.4-.9 2.29-.9 1.26 0 2.14.516 2.66 1.548.06-.156.14-.306.25-.45.1-.156.25-.342.47-.558.22-.216.52-.39.9-.522.37-.132.8-.198 1.28-.198 1.09 0 1.97.354 2.63 1.062.66.696.99 1.572.99 2.628 0 .708-.17 1.368-.49 1.98-.34.612-.86 1.068-1.58 1.368-.39.156-.81.246-1.26.27v-1.332c.49-.06.89-.204 1.2-.432.6-.408.9-1.026.9-1.854 0-.66-.23-1.218-.7-1.674a2.428 2.428 0 00-1.73-.684c-.98 0-1.65.396-2.01 1.188-.2.396-.28.852-.26 1.368h-1.18c.03-.516-.05-.972-.26-1.368-.34-.672-.94-1.008-1.78-1.008-.59 0-1.07.168-1.46.504-.39.336-.59.852-.59 1.548 0 .672.23 1.188.68 1.548.36.276.78.432 1.26.468zm-2.97-14.37h1.26v4.14h3.55V93.76h1.26v3.996h5.94v1.332h-12.01v-5.472zM48 154.908v1.314l-3.726-.576v2.448l3.726.576v1.314l-3.726-.576v1.98l-1.188-.18v-1.98l-2.394-.36v1.98l-1.188-.18v-1.98l-3.51-.54v-1.314l3.51.54v-2.448l-3.51-.54v-1.314l3.51.54v-1.98l1.188.18v1.98l2.394.36v-1.98l1.188.18v1.98l3.726.576zm-4.914.558l-2.394-.36v2.448l2.394.36v-2.448zM48 146.419H37.254v2.016l-1.26-.702v-2.646H48v1.332zm0-6.99H35.994v-2.448c0-1.848.468-3.324 1.404-4.428 1.14-1.368 2.676-2.052 4.608-2.052 1.872 0 3.408.702 4.608 2.106a5.46 5.46 0 011.062 1.854c.216.66.324 1.506.324 2.538v2.43zm-10.746-1.332h9.486v-1.17c0-1.428-.36-2.574-1.08-3.438-.912-1.08-2.13-1.62-3.654-1.62-1.44 0-2.592.462-3.456 1.386-.864.924-1.296 2.148-1.296 3.672v1.17zM48 120.946v7.758l-5.058-4.374c-.876-.744-1.458-1.212-1.746-1.404-.636-.444-1.248-.666-1.836-.666-.684 0-1.242.222-1.674.666-.444.444-.666 1.02-.666 1.728 0 .864.354 1.53 1.062 1.998.384.252.858.384 1.422.396v1.332c-1.02-.048-1.848-.348-2.484-.9-.816-.72-1.224-1.668-1.224-2.844 0-1.068.342-1.95 1.026-2.646.672-.708 1.524-1.062 2.556-1.062.804 0 1.662.318 2.574.954.444.324 1.11.87 1.998 1.638l2.826 2.502v-5.076H48zm-1.584-9.306c1.2.828 1.8 1.854 1.8 3.078 0 1.224-.6 2.25-1.8 3.078-1.164.804-2.634 1.206-4.41 1.206-1.776 0-3.246-.402-4.41-1.206-1.2-.828-1.8-1.854-1.8-3.078 0-1.224.6-2.25 1.8-3.078 1.164-.804 2.634-1.206 4.41-1.206 1.776 0 3.246.402 4.41 1.206zm-8.064 1.008c-.888.552-1.332 1.242-1.332 2.07 0 .828.444 1.518 1.332 2.07.936.588 2.154.882 3.654.882s2.718-.294 3.654-.882c.888-.552 1.332-1.242 1.332-2.07 0-.828-.444-1.518-1.332-2.07-.936-.588-2.154-.882-3.654-.882s-2.718.294-3.654.882zM48 100.942v7.758l-5.058-4.374c-.876-.744-1.458-1.212-1.746-1.404-.636-.444-1.248-.666-1.836-.666-.684 0-1.242.222-1.674.666-.444.444-.666 1.02-.666 1.728 0 .864.354 1.53 1.062 1.998.384.252.858.384 1.422.396v1.332c-1.02-.048-1.848-.348-2.484-.9-.816-.72-1.224-1.668-1.224-2.844 0-1.068.342-1.95 1.026-2.646.672-.708 1.524-1.062 2.556-1.062.804 0 1.662.318 2.574.954.444.324 1.11.87 1.998 1.638l2.826 2.502v-5.076H48zm-.414-1.366l-10.368-6.822v6.57h-1.224v-8.82l12.294 8.028-.702 1.044z" fill="#fff"/></svg>