<svg width="1520" height="179" fill="none" xmlns="http://www.w3.org/2000/svg"><path fill="#fff" d="M0 0h387v179H0z"/><path stroke="#000" stroke-opacity=".08" d="M.5.5h386v178H.5z"/><path fill="#5B433F" d="M1003 0h517v179h-517z"/><path fill="#F8F8F8" d="M387 0h259v179H387z"/><path fill="#0F0F0F" d="M646 0h124v179H646z"/><path fill="#7B5F54" d="M770 0h233v179H770z"/><path d="M433 154.908v1.314l-3.726-.576v2.448l3.726.576v1.314l-3.726-.576v1.98l-1.188-.18v-1.98l-2.394-.36v1.98l-1.188-.18v-1.98l-3.51-.54v-1.314l3.51.54v-2.448l-3.51-.54v-1.314l3.51.54v-1.98l1.188.18v1.98l2.394.36v-1.98l1.188.18v1.98l3.726.576zm-4.914.558l-2.394-.36v2.448l2.394.36v-2.448zm-7.092-11.279h1.26v4.14h3.546v-3.996h1.26v3.996H433v1.332h-12.006v-5.472zm5.76-7.751c.54-1.212 1.518-1.818 2.934-1.818.996 0 1.836.324 2.52.972.672.636 1.008 1.536 1.008 2.7 0 1.164-.336 2.07-1.008 2.718-.684.636-1.524.954-2.52.954-1.416 0-2.394-.606-2.934-1.818-.564.972-1.44 1.458-2.628 1.458-.912 0-1.692-.294-2.34-.882-.66-.588-.99-1.398-.99-2.43 0-1.032.33-1.842.99-2.43.648-.588 1.428-.882 2.34-.882 1.188 0 2.064.486 2.628 1.458zm-1.134 3.33c.396-.396.594-.888.594-1.476s-.198-1.074-.594-1.458c-.396-.396-.888-.594-1.476-.594-.636 0-1.146.204-1.53.612a1.961 1.961 0 00-.594 1.44c0 .564.198 1.05.594 1.458.384.396.894.594 1.53.594.588 0 1.08-.192 1.476-.576zm5.724.216c.432-.432.648-.996.648-1.692s-.216-1.26-.648-1.692c-.444-.432-1.008-.648-1.692-.648-.672 0-1.218.222-1.638.666-.432.432-.648.99-.648 1.674 0 .684.216 1.248.648 1.692.42.432.966.648 1.638.648.684 0 1.248-.216 1.692-.648zm-10.35-13.83h1.26v4.14h3.546v-3.996h1.26v3.996H433v1.332h-12.006v-5.472zm5.76-7.751c.54-1.212 1.518-1.818 2.934-1.818.996 0 1.836.324 2.52.972.672.636 1.008 1.536 1.008 2.7 0 1.164-.336 2.07-1.008 2.718-.684.636-1.524.954-2.52.954-1.416 0-2.394-.606-2.934-1.818-.564.972-1.44 1.458-2.628 1.458-.912 0-1.692-.294-2.34-.882-.66-.588-.99-1.398-.99-2.43 0-1.032.33-1.842.99-2.43.648-.588 1.428-.882 2.34-.882 1.188 0 2.064.486 2.628 1.458zm-1.134 3.33c.396-.396.594-.888.594-1.476s-.198-1.074-.594-1.458c-.396-.396-.888-.594-1.476-.594-.636 0-1.146.204-1.53.612a1.961 1.961 0 00-.594 1.44c0 .564.198 1.05.594 1.458.384.396.894.594 1.53.594.588 0 1.08-.192 1.476-.576zm5.724.216c.432-.432.648-.996.648-1.692s-.216-1.26-.648-1.692c-.444-.432-1.008-.648-1.692-.648-.672 0-1.218.222-1.638.666-.432.432-.648.99-.648 1.674 0 .684.216 1.248.648 1.692.42.432.966.648 1.638.648.684 0 1.248-.216 1.692-.648zm-10.35-13.83h1.26v4.14h3.546v-3.996h1.26v3.996H433v1.332h-12.006v-5.472zm5.76-7.751c.54-1.212 1.518-1.818 2.934-1.818.996 0 1.836.324 2.52.972.672.636 1.008 1.536 1.008 2.7 0 1.164-.336 2.07-1.008 2.718-.684.636-1.524.954-2.52.954-1.416 0-2.394-.606-2.934-1.818-.564.972-1.44 1.458-2.628 1.458-.912 0-1.692-.294-2.34-.882-.66-.588-.99-1.398-.99-2.43 0-1.032.33-1.842.99-2.43.648-.588 1.428-.882 2.34-.882 1.188 0 2.064.486 2.628 1.458zm-1.134 3.33c.396-.396.594-.888.594-1.476s-.198-1.074-.594-1.458c-.396-.396-.888-.594-1.476-.594-.636 0-1.146.204-1.53.612a1.961 1.961 0 00-.594 1.44c0 .564.198 1.05.594 1.458.384.396.894.594 1.53.594.588 0 1.08-.192 1.476-.576zm5.724.216c.432-.432.648-.996.648-1.692s-.216-1.26-.648-1.692c-.444-.432-1.008-.648-1.692-.648-.672 0-1.218.222-1.638.666-.432.432-.648.99-.648 1.674 0 .684.216 1.248.648 1.692.42.432.966.648 1.638.648.684 0 1.248-.216 1.692-.648z" fill="#7A7A7A"/><path d="M692 153.908v1.314l-3.726-.576v2.448l3.726.576v1.314l-3.726-.576v1.98l-1.188-.18v-1.98l-2.394-.36v1.98l-1.188-.18v-1.98l-3.51-.54v-1.314l3.51.54v-2.448l-3.51-.54v-1.314l3.51.54v-1.98l1.188.18v1.98l2.394.36v-1.98l1.188.18v1.98l3.726.576zm-4.914.558l-2.394-.36v2.448l2.394.36v-2.448zm3.33-12.449c1.2.828 1.8 1.854 1.8 3.078 0 1.224-.6 2.25-1.8 3.078-1.164.804-2.634 1.206-4.41 1.206-1.776 0-3.246-.402-4.41-1.206-1.2-.828-1.8-1.854-1.8-3.078 0-1.224.6-2.25 1.8-3.078 1.164-.804 2.634-1.206 4.41-1.206 1.776 0 3.246.402 4.41 1.206zm-8.064 1.008c-.888.552-1.332 1.242-1.332 2.07 0 .828.444 1.518 1.332 2.07.936.588 2.154.882 3.654.882s2.718-.294 3.654-.882c.888-.552 1.332-1.242 1.332-2.07 0-.828-.444-1.518-1.332-2.07-.936-.588-2.154-.882-3.654-.882s-2.718.294-3.654.882zm-2.358-10.068h1.26v4.14h3.546v-3.996h1.26v3.996H692v1.332h-12.006v-5.472zm10.422-8.975c1.2.828 1.8 1.854 1.8 3.078 0 1.224-.6 2.25-1.8 3.078-1.164.804-2.634 1.206-4.41 1.206-1.776 0-3.246-.402-4.41-1.206-1.2-.828-1.8-1.854-1.8-3.078 0-1.224.6-2.25 1.8-3.078 1.164-.804 2.634-1.206 4.41-1.206 1.776 0 3.246.402 4.41 1.206zm-8.064 1.008c-.888.552-1.332 1.242-1.332 2.07 0 .828.444 1.518 1.332 2.07.936.588 2.154.882 3.654.882s2.718-.294 3.654-.882c.888-.552 1.332-1.242 1.332-2.07 0-.828-.444-1.518-1.332-2.07-.936-.588-2.154-.882-3.654-.882s-2.718.294-3.654.882zm-2.358-10.069h1.26v4.14h3.546v-3.996h1.26v3.996H692v1.332h-12.006v-5.472zm10.422-8.974c1.2.828 1.8 1.854 1.8 3.078 0 1.224-.6 2.25-1.8 3.078-1.164.804-2.634 1.206-4.41 1.206-1.776 0-3.246-.402-4.41-1.206-1.2-.828-1.8-1.854-1.8-3.078 0-1.224.6-2.25 1.8-3.078 1.164-.804 2.634-1.206 4.41-1.206 1.776 0 3.246.402 4.41 1.206zm-8.064 1.008c-.888.552-1.332 1.242-1.332 2.07 0 .828.444 1.518 1.332 2.07.936.588 2.154.882 3.654.882s2.718-.294 3.654-.882c.888-.552 1.332-1.242 1.332-2.07 0-.828-.444-1.518-1.332-2.07-.936-.588-2.154-.882-3.654-.882s-2.718.294-3.654.882zm-2.358-10.069h1.26v4.14h3.546V97.03h1.26v3.996H692v1.332h-12.006v-5.472zM816 155.908v1.314l-3.726-.576v2.448l3.726.576v1.314l-3.726-.576v1.98l-1.188-.18v-1.98l-2.394-.36v1.98l-1.188-.18v-1.98l-3.51-.54v-1.314l3.51.54v-2.448l-3.51-.54v-1.314l3.51.54v-1.98l1.188.18v1.98l2.394.36v-1.98l1.188.18v1.98l3.726.576zm-4.914.558l-2.394-.36v2.448l2.394.36v-2.448zm4.5-5.195l-10.368-6.822v6.57h-1.224v-8.82l12.294 8.028-.702 1.044zm-11.592-10.842v-2.16c0-1.2.252-2.118.756-2.754.552-.72 1.38-1.08 2.484-1.08 1.032 0 1.818.396 2.358 1.188.192-.768.582-1.338 1.17-1.71a3.28 3.28 0 011.854-.576c.54 0 1.038.12 1.494.36a3.2 3.2 0 011.098.864c.528.672.792 1.632.792 2.88v2.988h-12.006zm1.26-1.332h4.014v-1.008c0-.18-.006-.354-.018-.522a3.808 3.808 0 00-.144-.594 2.11 2.11 0 00-.324-.612c-.132-.18-.33-.33-.594-.45-.264-.12-.57-.18-.918-.18-.372 0-.69.072-.954.216-.276.144-.48.306-.612.486s-.234.396-.306.648a3.425 3.425 0 00-.126.576 4.372 4.372 0 00-.018.396v1.044zm5.202 0h4.284v-1.53c0-.972-.168-1.674-.504-2.106-.384-.528-.936-.792-1.656-.792-.804 0-1.392.342-1.764 1.026-.24.432-.36 1.11-.36 2.034v1.368zm-6.462-15.287h1.224v3.852l2.592.774a3.363 3.363 0 01-.072-.756c0-1.188.396-2.142 1.188-2.862.792-.732 1.782-1.098 2.97-1.098 1.296 0 2.34.426 3.132 1.278.792.84 1.188 1.872 1.188 3.096 0 1.032-.312 1.926-.936 2.682-.372.432-.78.78-1.224 1.044l-.756-1.062c.36-.18.684-.45.972-.81.48-.588.72-1.236.72-1.944 0-.84-.3-1.542-.9-2.106-.6-.564-1.326-.846-2.178-.846-.864 0-1.572.282-2.124.846-.552.552-.828 1.254-.828 2.106 0 .756.276 1.53.828 2.322l-5.796-1.746v-4.77zm0-8.629h1.26v4.14h3.546v-3.996h1.26v3.996H816v1.332h-12.006v-5.472zm0-9.407h1.224v3.852l2.592.774a3.363 3.363 0 01-.072-.756c0-1.188.396-2.142 1.188-2.862.792-.732 1.782-1.098 2.97-1.098 1.296 0 2.34.426 3.132 1.278.792.84 1.188 1.872 1.188 3.096 0 1.032-.312 1.926-.936 2.682-.372.432-.78.78-1.224 1.044l-.756-1.062c.36-.18.684-.45.972-.81.48-.588.72-1.236.72-1.944 0-.84-.3-1.542-.9-2.106-.6-.564-1.326-.846-2.178-.846-.864 0-1.572.282-2.124.846-.552.552-.828 1.254-.828 2.106 0 .756.276 1.53.828 2.322l-5.796-1.746v-4.77zm-.666-8.999h9.18v-1.476h1.224v1.476H816v1.332h-2.268v6.156l-10.404-7.488zm9.18 5.13v-3.798h-5.31l5.31 3.798zM1049 153.908v1.314l-3.73-.576v2.448l3.73.576v1.314l-3.73-.576v1.98l-1.18-.18v-1.98l-2.4-.36v1.98l-1.19-.18v-1.98l-3.51-.54v-1.314l3.51.54v-2.448l-3.51-.54v-1.314l3.51.54v-1.98l1.19.18v1.98l2.4.36v-1.98l1.18.18v1.98l3.73.576zm-4.91.558l-2.4-.36v2.448l2.4.36v-2.448zm-7.1-12.881h1.23v3.852l2.59.774a3.262 3.262 0 01-.07-.756c0-1.188.39-2.142 1.19-2.862.79-.732 1.78-1.098 2.97-1.098 1.29 0 2.34.426 3.13 1.278.79.84 1.19 1.872 1.19 3.096 0 1.032-.32 1.926-.94 2.682-.37.432-.78.78-1.22 1.044l-.76-1.062c.36-.18.68-.45.97-.81.48-.588.72-1.236.72-1.944 0-.84-.3-1.542-.9-2.106-.6-.564-1.32-.846-2.18-.846-.86 0-1.57.282-2.12.846-.55.552-.83 1.254-.83 2.106 0 .756.28 1.53.83 2.322l-5.8-1.746v-4.77zm0-3.156v-2.16c0-1.2.26-2.118.76-2.754.55-.72 1.38-1.08 2.48-1.08 1.04 0 1.82.396 2.36 1.188.19-.768.58-1.338 1.17-1.71a3.31 3.31 0 011.86-.576c.54 0 1.03.12 1.49.36.46.228.82.516 1.1.864.53.672.79 1.632.79 2.88v2.988h-12.01zm1.26-1.332h4.02v-1.008c0-.18-.01-.354-.02-.522a3.537 3.537 0 00-.14-.594 2.33 2.33 0 00-.33-.612c-.13-.18-.33-.33-.59-.45-.27-.12-.57-.18-.92-.18-.37 0-.69.072-.95.216-.28.144-.48.306-.62.486-.13.18-.23.396-.3.648-.07.252-.12.444-.13.576a5.25 5.25 0 00-.02.396v1.044zm5.21 0h4.28v-1.53c0-.972-.17-1.674-.5-2.106-.39-.528-.94-.792-1.66-.792-.8 0-1.39.342-1.76 1.026-.24.432-.36 1.11-.36 2.034v1.368zm-7.13-14.513h9.18v-1.476h1.22v1.476h2.27v1.332h-2.27v6.156l-10.4-7.488zm9.18 5.13v-3.798h-5.31l5.31 3.798zm-5.55-10.393v1.332a3.687 3.687 0 01-1.76-.558c-.94-.6-1.4-1.53-1.4-2.79 0-1.068.31-1.896.95-2.484.64-.6 1.4-.9 2.29-.9 1.26 0 2.14.516 2.66 1.548.06-.156.14-.306.25-.45.1-.156.25-.342.47-.558.22-.216.52-.39.9-.522.37-.132.8-.198 1.28-.198 1.09 0 1.97.354 2.63 1.062.66.696.99 1.572.99 2.628 0 .708-.17 1.368-.49 1.98-.34.612-.86 1.068-1.58 1.368-.39.156-.81.246-1.26.27v-1.332c.49-.06.89-.204 1.2-.432.6-.408.9-1.026.9-1.854 0-.66-.23-1.218-.7-1.674a2.428 2.428 0 00-1.73-.684c-.98 0-1.65.396-2.01 1.188-.2.396-.28.852-.26 1.368h-1.18c.03-.516-.05-.972-.26-1.368-.34-.672-.94-1.008-1.78-1.008-.59 0-1.07.168-1.46.504-.39.336-.59.852-.59 1.548 0 .672.23 1.188.68 1.548.36.276.78.432 1.26.468zm0-9.334v1.332a3.687 3.687 0 01-1.76-.558c-.94-.6-1.4-1.53-1.4-2.79 0-1.068.31-1.896.95-2.484.64-.6 1.4-.9 2.29-.9 1.26 0 2.14.516 2.66 1.548.06-.156.14-.306.25-.45.1-.156.25-.342.47-.558.22-.216.52-.39.9-.522.37-.132.8-.198 1.28-.198 1.09 0 1.97.354 2.63 1.062.66.696.99 1.572.99 2.628 0 .708-.17 1.368-.49 1.98-.34.612-.86 1.068-1.58 1.368-.39.156-.81.246-1.26.27v-1.332c.49-.06.89-.204 1.2-.432.6-.408.9-1.026.9-1.854 0-.66-.23-1.218-.7-1.674a2.428 2.428 0 00-1.73-.684c-.98 0-1.65.396-2.01 1.188-.2.396-.28.852-.26 1.368h-1.18c.03-.516-.05-.972-.26-1.368-.34-.672-.94-1.008-1.78-1.008-.59 0-1.07.168-1.46.504-.39.336-.59.852-.59 1.548 0 .672.23 1.188.68 1.548.36.276.78.432 1.26.468zm-2.97-14.37h1.26v4.14h3.55V93.76h1.26v3.996h5.94v1.332h-12.01v-5.472z" fill="#fff"/><path d="M48 154.908v1.314l-3.726-.576v2.448l3.726.576v1.314l-3.726-.576v1.98l-1.188-.18v-1.98l-2.394-.36v1.98l-1.188-.18v-1.98l-3.51-.54v-1.314l3.51.54v-2.448l-3.51-.54v-1.314l3.51.54v-1.98l1.188.18v1.98l2.394.36v-1.98l1.188.18v1.98l3.726.576zm-4.914.558l-2.394-.36v2.448l2.394.36v-2.448zm-7.092-11.279h1.26v4.14H40.8v-3.996h1.26v3.996H48v1.332H35.994v-5.472zm0-7.805h1.26v4.14H40.8v-3.996h1.26v3.996H48v1.332H35.994v-5.472zm0-7.804h1.26v4.14H40.8v-3.996h1.26v3.996H48v1.332H35.994v-5.472zm0-7.805h1.26v4.14H40.8v-3.996h1.26v3.996H48v1.332H35.994v-5.472zm0-7.805h1.26v4.14H40.8v-3.996h1.26v3.996H48v1.332H35.994v-5.472zm0-7.804h1.26v4.14H40.8v-3.996h1.26v3.996H48v1.332H35.994v-5.472z" fill="#7A7A7A"/></svg>