<svg width="1524" height="234" fill="none" xmlns="http://www.w3.org/2000/svg"><path d="M4.788 229v-10.746H2.772l.702-1.26H6.12V229H4.788zm11.393 0H8.423l4.374-5.058c.744-.876 1.212-1.458 1.404-1.746.444-.636.666-1.248.666-1.836 0-.684-.222-1.242-.666-1.674-.444-.444-1.02-.666-1.728-.666-.864 0-1.53.354-1.998 1.062-.252.384-.384.858-.396 1.422H8.747c.048-1.02.348-1.848.9-2.484.72-.816 1.668-1.224 2.844-1.224 1.068 0 1.95.342 2.646 1.026.708.672 1.062 1.524 1.062 2.556 0 .804-.318 1.662-.954 2.574-.324.444-.87 1.11-1.638 1.998l-2.502 2.826h5.076V229zm12.848-6.93v1.548c-.588-.744-1.368-1.116-2.34-1.116-.732 0-1.356.252-1.872.756-.516.492-.774 1.17-.774 2.034 0 .864.258 1.542.774 2.034a2.592 2.592 0 001.854.738c.96 0 1.764-.39 2.412-1.17v1.548c-.708.516-1.5.774-2.376.774-1.164 0-2.124-.366-2.88-1.098-.744-.744-1.116-1.68-1.116-2.808 0-1.14.378-2.082 1.134-2.826.756-.756 1.71-1.134 2.862-1.134.864 0 1.638.24 2.322.72zm8.36 6.03c-.743.744-1.685 1.116-2.825 1.116-1.14 0-2.088-.372-2.844-1.116-.744-.744-1.116-1.68-1.116-2.808 0-1.14.372-2.082 1.116-2.826.756-.744 1.704-1.116 2.844-1.116s2.082.372 2.826 1.116c.756.744 1.134 1.686 1.134 2.826 0 1.128-.378 2.064-1.134 2.808zm-.971-4.86c-.504-.492-1.122-.738-1.854-.738s-1.356.252-1.872.756c-.504.492-.756 1.17-.756 2.034 0 .864.258 1.542.774 2.034a2.592 2.592 0 001.854.738c.72 0 1.338-.246 1.854-.738s.774-1.17.774-2.034c0-.876-.258-1.56-.774-2.052zm4.093-7.362h1.296V229h-1.296v-13.122zm5.04 5.652v4.356c0 .756.12 1.29.36 1.602.3.384.738.576 1.314.576.576 0 1.014-.192 1.314-.576.24-.312.36-.846.36-1.602v-4.356h1.296v4.5c0 1.008-.228 1.758-.684 2.25-.588.624-1.35.936-2.286.936-.936 0-1.698-.312-2.286-.936-.456-.492-.684-1.242-.684-2.25v-4.5h1.296zM52.64 229v-7.47h1.296v.792c.444-.648 1.062-.972 1.854-.972.9 0 1.578.402 2.034 1.206.516-.804 1.266-1.206 2.25-1.206 1.62 0 2.43.972 2.43 2.916V229h-1.296v-4.536a4.7 4.7 0 00-.072-.9c-.036-.252-.162-.492-.378-.72-.204-.228-.498-.342-.882-.342-1.104 0-1.656.78-1.656 2.34V229h-1.296v-4.428c0-1.38-.45-2.07-1.35-2.07-1.092 0-1.638.81-1.638 2.43V229H52.64zm12.322 0v-7.47h1.296v.864c.528-.696 1.242-1.044 2.142-1.044.96 0 1.674.342 2.142 1.026.288.42.432 1.086.432 1.998V229h-1.296v-4.59c0-.612-.114-1.068-.342-1.368-.276-.36-.684-.54-1.224-.54-.552 0-.99.192-1.314.576-.36.42-.54 1.092-.54 2.016V229h-1.296zm12.595-6.3l-1.062.558c-.204-.504-.552-.756-1.044-.756-.252 0-.468.072-.648.216-.168.144-.252.354-.252.63 0 .252.078.444.234.576.168.12.492.282.972.486.948.396 1.572.78 1.872 1.152.264.324.396.726.396 1.206 0 .756-.246 1.356-.738 1.8-.48.432-1.092.648-1.836.648-.144 0-.3-.018-.468-.054a4.636 4.636 0 01-.702-.18c-.288-.108-.564-.306-.828-.594a2.957 2.957 0 01-.612-1.08l1.116-.468c.3.816.804 1.224 1.512 1.224.396 0 .696-.12.9-.36.216-.24.324-.516.324-.828a.957.957 0 00-.09-.432.733.733 0 00-.27-.342 2.04 2.04 0 00-.36-.234 6.564 6.564 0 00-.486-.234c-.96-.42-1.566-.786-1.818-1.098-.228-.288-.342-.654-.342-1.098 0-.648.198-1.158.594-1.53.408-.372.936-.558 1.584-.558.948 0 1.632.45 2.052 1.35zm654.323-2.736h-1.332a3.682 3.682 0 01.558-1.764c.6-.936 1.53-1.404 2.79-1.404 1.068 0 1.896.318 2.484.954.6.636.9 1.398.9 2.286 0 1.26-.516 2.148-1.548 2.664.156.06.306.144.45.252.156.096.342.252.558.468.216.216.39.516.522.9.132.372.198.798.198 1.278 0 1.092-.354 1.968-1.062 2.628-.696.66-1.572.99-2.628.99a4.168 4.168 0 01-1.98-.486c-.612-.336-1.068-.864-1.368-1.584a3.864 3.864 0 01-.27-1.26h1.332c.06.492.204.894.432 1.206.408.6 1.026.9 1.854.9.66 0 1.218-.234 1.674-.702a2.42 2.42 0 00.684-1.728c0-.984-.396-1.656-1.188-2.016-.396-.192-.852-.276-1.368-.252v-1.188c.516.036.972-.048 1.368-.252.672-.348 1.008-.942 1.008-1.782 0-.588-.168-1.074-.504-1.458-.336-.396-.852-.594-1.548-.594-.672 0-1.188.228-1.548.684-.276.36-.432.78-.468 1.26zm15.54 7.452c-.828 1.2-1.854 1.8-3.078 1.8-1.224 0-2.25-.6-3.078-1.8-.804-1.164-1.206-2.634-1.206-4.41 0-1.776.402-3.246 1.206-4.41.828-1.2 1.854-1.8 3.078-1.8 1.224 0 2.25.6 3.078 1.8.804 1.164 1.206 2.634 1.206 4.41 0 1.776-.402 3.246-1.206 4.41zm-1.008-8.064c-.552-.888-1.242-1.332-2.07-1.332-.828 0-1.518.444-2.07 1.332-.588.936-.882 2.154-.882 3.654s.294 2.718.882 3.654c.552.888 1.242 1.332 2.07 1.332.828 0 1.518-.444 2.07-1.332.588-.936.882-2.154.882-3.654s-.294-2.718-.882-3.654zm14.99 4.878v-1.26h5.004v.288c0 1.488-.384 2.754-1.152 3.798-1.068 1.44-2.556 2.16-4.464 2.16-1.776 0-3.258-.594-4.446-1.782-1.188-1.2-1.782-2.676-1.782-4.428 0-1.752.594-3.222 1.782-4.41 1.2-1.2 2.694-1.8 4.482-1.8 1.416 0 2.64.396 3.672 1.188.528.408.99.882 1.386 1.422l-.99.9a6.328 6.328 0 00-1.134-1.242c-.828-.672-1.8-1.008-2.916-1.008-1.428 0-2.604.474-3.528 1.422-.924.948-1.386 2.13-1.386 3.546 0 1.032.252 1.938.756 2.718.504.768 1.116 1.332 1.836 1.692a5.263 5.263 0 002.286.522c.792 0 1.512-.18 2.16-.54.66-.372 1.164-.864 1.512-1.476.3-.516.462-1.086.486-1.71h-3.564zm8.421-2.7v4.356c0 .756.12 1.29.36 1.602.3.384.738.576 1.314.576.576 0 1.014-.192 1.314-.576.24-.312.36-.846.36-1.602v-4.356h1.296v4.5c0 1.008-.228 1.758-.684 2.25-.588.624-1.35.936-2.286.936-.936 0-1.698-.312-2.286-.936-.456-.492-.684-1.242-.684-2.25v-4.5h1.296zm9.717 1.188h-1.296V229h-1.296v-6.282h-.792v-1.188h.792v-2.7h1.296v2.7h1.296v1.188zm4.201 0h-1.296V229h-1.296v-6.282h-.792v-1.188h.792v-2.7h1.296v2.7h1.296v1.188zm6.765 3.78l1.08.594c-.252.48-.558.882-.918 1.206-.684.612-1.512.918-2.484.918-1.008 0-1.878-.324-2.61-.972-.72-.66-1.08-1.638-1.08-2.934 0-1.14.324-2.082.972-2.826.66-.756 1.542-1.134 2.646-1.134 1.248 0 2.19.456 2.826 1.368.504.72.738 1.656.702 2.808h-5.814c.012.756.246 1.368.702 1.836a2.247 2.247 0 001.674.702c.588 0 1.098-.18 1.53-.54a2.94 2.94 0 00.774-1.026zm-4.59-2.052h4.392c-.108-.588-.366-1.056-.774-1.404-.396-.36-.87-.54-1.422-.54-.54 0-1.02.186-1.44.558-.408.36-.66.822-.756 1.386zm7.712 4.554v-7.47h1.296v.81c.42-.66.984-.99 1.692-.99.36 0 .744.102 1.152.306l-.612 1.17a1.298 1.298 0 00-.756-.252c-.456 0-.804.156-1.044.468-.288.384-.432 1.056-.432 2.016V229h-1.296zm652.032 0h-7.76l4.37-5.058c.75-.876 1.22-1.458 1.41-1.746.44-.636.66-1.248.66-1.836 0-.684-.22-1.242-.66-1.674-.45-.444-1.02-.666-1.73-.666-.86 0-1.53.354-2 1.062-.25.384-.38.858-.39 1.422h-1.34c.05-1.02.35-1.848.9-2.484.72-.816 1.67-1.224 2.85-1.224 1.07 0 1.95.342 2.64 1.026.71.672 1.07 1.524 1.07 2.556 0 .804-.32 1.662-.96 2.574-.32.444-.87 1.11-1.64 1.998l-2.5 2.826h5.08V229zm9.3-1.584c-.82 1.2-1.85 1.8-3.07 1.8-1.23 0-2.25-.6-3.08-1.8-.81-1.164-1.21-2.634-1.21-4.41 0-1.776.4-3.246 1.21-4.41.83-1.2 1.85-1.8 3.08-1.8 1.22 0 2.25.6 3.07 1.8.81 1.164 1.21 2.634 1.21 4.41 0 1.776-.4 3.246-1.21 4.41zm-1-8.064c-.56-.888-1.25-1.332-2.07-1.332-.83 0-1.52.444-2.07 1.332-.59.936-.89 2.154-.89 3.654s.3 2.718.89 3.654c.55.888 1.24 1.332 2.07 1.332.82 0 1.51-.444 2.07-1.332.58-.936.88-2.154.88-3.654s-.3-2.718-.88-3.654zm11.23 8.064c-.82 1.2-1.85 1.8-3.07 1.8-1.23 0-2.25-.6-3.08-1.8-.81-1.164-1.21-2.634-1.21-4.41 0-1.776.4-3.246 1.21-4.41.83-1.2 1.85-1.8 3.08-1.8 1.22 0 2.25.6 3.07 1.8.81 1.164 1.21 2.634 1.21 4.41 0 1.776-.4 3.246-1.21 4.41zm-1-8.064c-.56-.888-1.25-1.332-2.07-1.332-.83 0-1.52.444-2.07 1.332-.59.936-.89 2.154-.89 3.654s.3 2.718.89 3.654c.55.888 1.24 1.332 2.07 1.332.82 0 1.51-.444 2.07-1.332.58-.936.88-2.154.88-3.654s-.3-2.718-.88-3.654zm9.75 9.648h-1.37l2-12.672 4.61 10.134 4.69-10.152 1.88 12.69h-1.37l-1.14-8.352-4.08 8.856-4.03-8.856-1.19 8.352zm19.98-6.408v-1.062h1.3V229h-1.3v-1.044c-.65.84-1.5 1.26-2.55 1.26-1.01 0-1.87-.348-2.58-1.044-.71-.696-1.06-1.668-1.06-2.916 0-1.224.35-2.178 1.04-2.862.71-.696 1.58-1.044 2.6-1.044 1.08 0 1.93.414 2.55 1.242zm-2.41-.09c-.68 0-1.27.246-1.75.738-.46.48-.7 1.152-.7 2.016 0 .828.22 1.506.65 2.034.44.516 1.04.774 1.8.774s1.36-.27 1.8-.81c.46-.54.68-1.2.68-1.98 0-.888-.25-1.572-.75-2.052-.51-.48-1.08-.72-1.73-.72zm6.16 6.498v-7.47h1.3v.81c.42-.66.98-.99 1.69-.99.36 0 .75.102 1.15.306l-.61 1.17a1.29 1.29 0 00-.75-.252c-.46 0-.81.156-1.05.468-.29.384-.43 1.056-.43 2.016V229h-1.3zm10.61-6.408v-1.062h1.3v7.29c0 1.308-.24 2.286-.72 2.934-.68.924-1.68 1.386-2.99 1.386-1.1 0-1.99-.336-2.66-1.008-.65-.648-.97-1.452-.97-2.412h1.27c0 .6.2 1.116.58 1.548.43.48 1.03.72 1.8.72.9 0 1.56-.348 1.98-1.044.28-.444.41-1.08.41-1.908v-1.08c-.64.84-1.5 1.26-2.55 1.26-1.03 0-1.89-.336-2.56-1.008-.72-.72-1.08-1.704-1.08-2.952 0-1.212.36-2.178 1.08-2.898.7-.672 1.55-1.008 2.56-1.008 1.07 0 1.92.414 2.55 1.242zm-2.41-.09c-.66 0-1.22.234-1.69.702-.5.516-.76 1.2-.76 2.052 0 .948.29 1.68.85 2.196.44.408.98.612 1.6.612.67 0 1.22-.21 1.64-.63.56-.54.85-1.26.85-2.16 0-.9-.27-1.602-.8-2.106-.44-.444-1-.666-1.69-.666zm6.16-.972h1.3V229h-1.3v-7.47zm0-2.178a.884.884 0 01-.27-.648c0-.252.09-.468.27-.648.18-.18.4-.27.65-.27s.47.09.65.27c.18.18.27.396.27.648s-.09.468-.27.648c-.18.18-.4.27-.65.27s-.47-.09-.65-.27zm3.75 9.648v-7.47h1.29v.864c.53-.696 1.25-1.044 2.15-1.044.96 0 1.67.342 2.14 1.026.29.42.43 1.086.43 1.998V229h-1.3v-4.59c0-.612-.11-1.068-.34-1.368-.27-.36-.68-.54-1.22-.54-.55 0-.99.192-1.32.576-.36.42-.54 1.092-.54 2.016V229h-1.29z" fill="#fff"/><path d="M7.28 11.592c-.736 1.067-1.648 1.6-2.736 1.6-1.088 0-2-.533-2.736-1.6C1.093 10.557.736 9.251.736 7.672c0-1.579.357-2.885 1.072-3.92.736-1.067 1.648-1.6 2.736-1.6 1.088 0 2 .533 2.736 1.6.715 1.035 1.072 2.341 1.072 3.92 0 1.579-.357 2.885-1.072 3.92zm-.896-7.168c-.49-.79-1.104-1.184-1.84-1.184s-1.35.395-1.84 1.184c-.523.832-.784 1.915-.784 3.248 0 1.333.261 2.416.784 3.248.49.79 1.104 1.184 1.84 1.184s1.35-.395 1.84-1.184c.523-.832.784-1.915.784-3.248 0-1.333-.261-2.416-.784-3.248zM1493.97 13V3.448h-1.8l.63-1.12h2.35V13h-1.18zm6.75.256l-.9-.656 2.45-3.408c-.31.096-.62.144-.94.144-1.02 0-1.85-.336-2.5-1.008-.64-.672-.96-1.51-.96-2.512 0-1.067.34-1.941 1.03-2.624.69-.693 1.57-1.04 2.64-1.04.79 0 1.47.192 2.04.576.59.373 1.01.832 1.27 1.376.25.533.38 1.093.38 1.68 0 .821-.29 1.637-.88 2.448l-3.63 5.024zm.83-10.016c-.72 0-1.32.245-1.79.736-.47.48-.7 1.083-.7 1.808 0 .715.23 1.307.7 1.776.48.459 1.08.688 1.81.688.72 0 1.32-.235 1.77-.704.47-.47.71-1.056.71-1.76 0-.725-.24-1.328-.71-1.808-.45-.49-1.05-.736-1.79-.736zM1513.2 13h-6.89l3.89-4.496c.66-.779 1.07-1.296 1.24-1.552.4-.565.6-1.11.6-1.632 0-.608-.2-1.104-.6-1.488-.39-.395-.9-.592-1.53-.592-.77 0-1.36.315-1.78.944-.22.341-.34.763-.35 1.264h-1.18c.04-.907.31-1.643.8-2.208.64-.725 1.48-1.088 2.52-1.088.95 0 1.74.304 2.36.912.63.597.94 1.355.94 2.272 0 .715-.28 1.477-.85 2.288-.29.395-.77.987-1.45 1.776l-2.23 2.512h4.51V13zm8.28-1.408c-.74 1.067-1.65 1.6-2.74 1.6-1.09 0-2-.533-2.74-1.6-.71-1.035-1.07-2.341-1.07-3.92 0-1.579.36-2.885 1.07-3.92.74-1.067 1.65-1.6 2.74-1.6 1.09 0 2 .533 2.74 1.6.71 1.035 1.07 2.341 1.07 3.92 0 1.579-.36 2.885-1.07 3.92zm-.9-7.168c-.49-.79-1.1-1.184-1.84-1.184s-1.35.395-1.84 1.184c-.52.832-.78 1.915-.78 3.248 0 1.333.26 2.416.78 3.248.49.79 1.1 1.184 1.84 1.184s1.35-.395 1.84-1.184c.52-.832.78-1.915.78-3.248 0-1.333-.26-2.416-.78-3.248z" fill="#C1C1C1"/><path stroke="#fff" d="M3.5 157V48m1520 109V48m-1391 88V69m-29 67V69m128 67V69m30 67V69m100 67V69m30 67V69m99 67V69m30 67V69m99 67V69m30 67V69m99 67V69m30 67V69m99 67V69m30 67V69m99 67V69m30 67V69m100 67V69m30 67V69m99 67V69m30 67V69m99 67V69m30 67V69"/></svg>